#N canvas 283 339 571 267 12;
#X text 288 32 ↓;
#X text 288 21 |;
#X text 288 116 ↓;
#X text 288 93 |;
#X text 288 82 |;
#X text 288 105 |;
#X text 288 166 |;
#X text 288 177 |;
#X text 204 37 ↑;
#X text 204 61 |;
#X text 204 50 |;
#X text 204 72 |;
#X text 204 121 ↑;
#X text 204 145 |;
#X text 204 134 |;
#X text 204 156 |;
#X text 204 167 |;
#X text 204 178 |;
#X text 242 80 -a1;
#X text 236 165 -a2;
#X obj 192 6 ./misc/fltr.g.plus;
#X obj 278 50 ../misc/fltr.g.z-1;
#X obj 191 89 ./misc/fltr.g.plus;
#X obj 283 134 ../misc/fltr.g.z-1;
#X text 92 84 b1;
#X text 50 32 ↓;
#X text 50 116 ↓;
#X text 50 93 |;
#X text 50 82 |;
#X text 50 105 |;
#X text 50 166 |;
#X text 50 177 |;
#X text 147 37 ↑;
#X text 147 61 |;
#X text 147 50 |;
#X text 147 72 |;
#X text 147 121 ↑;
#X text 147 145 |;
#X text 147 134 |;
#X text 147 156 |;
#X text 147 167 |;
#X text 147 178 |;
#X text 90 168 b2;
#X obj 134 6 ./misc/fltr.g.plus;
#X obj 40 50 ../misc/fltr.g.z-1;
#X obj 134 89 ./misc/fltr.g.plus;
#X obj 45 134 ../misc/fltr.g.z-1;
#X text 50 22 |;
#X text 10 13 x(n)––––––⊗––→;
#X text 168 13 –→;
#X text 226 13 ––––––––→ y(n);
#X text 224 98 ←––⊗–––;
#X text 208 182 –––––⊗––––;
#X text 53 98 ––––⊗–––→;
#X text 53 182 ––––⊗–––––––;
#X text 87 31 b0;
#X coords 0 -1 1 1 346 198 2 2 2;
