#N canvas 504 83 547 528 12;
#X obj 97 50 inlet~;
#X obj 222 50 inlet~;
#X obj 158 50 inlet~;
#X obj 97 105 *~, f 8;
#X obj 307 50 inlet~;
#X obj 97 485 outlet~;
#X obj 97 375 cpole~, f 7;
#X obj 97 415 cpole~, f 20;
#X obj 372 50 inlet~;
#X obj 457 50 inlet~;
#N canvas 0 22 622 473 to.complex 0;
#X obj 222 87 *~;
#X obj 307 87 *~;
#X obj 307 112 sqrt~;
#X obj 254 244 sig~ 1;
#X obj 254 269 -~;
#X obj 307 137 *~ -2;
#X obj 275 216 *~;
#X obj 254 294 sqrt~;
#X obj 254 319 *~, f 7;
#X obj 254 344 *~ -1;
#X obj 201 168 /~;
#X obj 201 217 *~;
#X obj 201 393 outlet~;
#X obj 271 393 outlet~;
#X obj 341 393 outlet~;
#X obj 411 393 outlet~;
#X obj 210 29 inlet~;
#X obj 280 29 inlet~;
#X obj 350 29 inlet~;
#X connect 0 0 10 0;
#X connect 1 0 2 0;
#X connect 2 0 5 0;
#X connect 2 0 8 1;
#X connect 2 0 11 1;
#X connect 3 0 4 0;
#X connect 4 0 7 0;
#X connect 5 0 10 1;
#X connect 6 0 4 1;
#X connect 7 0 8 0;
#X connect 8 0 9 0;
#X connect 8 0 13 0;
#X connect 9 0 15 0;
#X connect 10 0 11 0;
#X connect 10 0 6 0;
#X connect 10 0 6 1;
#X connect 11 0 12 0;
#X connect 11 0 14 0;
#X connect 16 0 0 1;
#X connect 16 0 1 1;
#X connect 17 0 0 0;
#X connect 18 0 1 0;
#X restore 311 225 pd to.complex;
#N canvas 0 22 622 473 to.complex 0;
#X obj 222 87 *~;
#X obj 307 87 *~;
#X obj 307 112 sqrt~;
#X obj 254 244 sig~ 1;
#X obj 254 269 -~;
#X obj 307 137 *~ -2;
#X obj 275 216 *~;
#X obj 254 294 sqrt~;
#X obj 254 319 *~, f 7;
#X obj 254 344 *~ -1;
#X obj 201 168 /~;
#X obj 201 217 *~;
#X obj 201 393 outlet~;
#X obj 271 393 outlet~;
#X obj 341 393 outlet~;
#X obj 411 393 outlet~;
#X obj 210 29 inlet~;
#X obj 280 29 inlet~;
#X obj 350 29 inlet~;
#X connect 0 0 10 0;
#X connect 1 0 2 0;
#X connect 2 0 5 0;
#X connect 2 0 8 1;
#X connect 2 0 11 1;
#X connect 3 0 4 0;
#X connect 4 0 7 0;
#X connect 5 0 10 1;
#X connect 6 0 4 1;
#X connect 7 0 8 0;
#X connect 8 0 9 0;
#X connect 8 0 13 0;
#X connect 9 0 15 0;
#X connect 10 0 11 0;
#X connect 10 0 6 0;
#X connect 10 0 6 1;
#X connect 11 0 12 0;
#X connect 11 0 14 0;
#X connect 16 0 0 1;
#X connect 16 0 1 1;
#X connect 17 0 0 0;
#X connect 18 0 1 0;
#X restore 191 195 pd to.complex;
#X obj 97 275 czero~, f 7;
#X obj 97 315 czero~, f 7;
#X connect 0 0 3 0;
#X connect 1 0 11 1;
#X connect 2 0 3 1;
#X connect 2 0 10 0;
#X connect 2 0 11 0;
#X connect 3 0 12 0;
#X connect 4 0 11 2;
#X connect 6 0 7 0;
#X connect 6 1 7 1;
#X connect 7 0 5 0;
#X connect 8 0 10 1;
#X connect 9 0 10 2;
#X connect 10 0 6 2;
#X connect 10 1 6 3;
#X connect 10 2 7 2;
#X connect 10 3 7 3;
#X connect 11 0 12 2;
#X connect 11 1 12 3;
#X connect 11 2 13 2;
#X connect 11 3 13 3;
#X connect 12 0 13 0;
#X connect 12 1 13 1;
#X connect 13 0 6 0;
#X connect 13 1 6 1;
