#N canvas 283 339 460 215 12;
#X obj 120 6 ./template/fltr.g.plus;
#X obj 236 50 ../template/fltr.g.z-1;
#X obj 119 89 ./template/fltr.g.plus;
#X text 73 32 b0;
#X obj 241 134 ../template/fltr.g.z-1;
#X text 246 32 ↓;
#X text 246 21 |;
#X text 246 116 ↓;
#X text 246 93 |;
#X text 246 82 |;
#X text 246 105 |;
#X text 246 166 |;
#X text 246 177 |;
#X text 132 37 ↑;
#X text 132 61 |;
#X text 132 50 |;
#X text 132 72 |;
#X text 132 121 ↑;
#X text 132 145 |;
#X text 132 134 |;
#X text 132 156 |;
#X text 132 167 |;
#X text 132 178 |;
#X text 154 13 ––––––––––––––––→
y(n);
#X text 22 13 x(n)–––⊗––→;
#X text 182 80 -a1;
#X text 178 165 -a2;
#X text 152 98 ←–––⊗––––––;
#X text 136 182 ––––––⊗–––––––;
#X coords 0 -1 1 1 346 198 2 2 2;
