#N canvas 504 83 547 528 12;
#X obj 97 50 inlet~;
#X obj 222 50 inlet~;
#X obj 158 50 inlet~;
#X obj 97 105 *~, f 8;
#X obj 307 50 inlet~;
#X obj 97 485 outlet~;
#X obj 97 375 cpole~, f 7;
#X obj 97 415 cpole~, f 20;
#X obj 222 87 *~;
#X obj 307 87 *~;
#X obj 307 112 sqrt~;
#X text 366 114 r;
#X obj 254 244 sig~ 1;
#X obj 254 269 -~;
#X obj 307 137 *~ -2;
#X obj 275 216 *~;
#X obj 254 294 sqrt~;
#X obj 254 319 *~, f 7;
#X obj 254 344 *~ -1;
#X obj 201 168 /~;
#X obj 201 217 *~;
#X text 139 170 cos(θ);
#X text 337 320 |sin(θ)|;
#X text 49 9 Here a small trick completely useless to use b1 and b2
\, instead of directely cos(θ) and sin(θ) and r;
#X text 279 371 Because we must use complex pole filters, f 21;
#X connect 0 0 3 0;
#X connect 1 0 8 0;
#X connect 2 0 3 1;
#X connect 2 0 8 1;
#X connect 2 0 9 1;
#X connect 3 0 6 0;
#X connect 4 0 9 0;
#X connect 6 0 7 0;
#X connect 6 1 7 1;
#X connect 7 0 5 0;
#X connect 8 0 19 0;
#X connect 9 0 10 0;
#X connect 10 0 14 0;
#X connect 10 0 17 1;
#X connect 10 0 20 1;
#X connect 12 0 13 0;
#X connect 13 0 16 0;
#X connect 14 0 19 1;
#X connect 15 0 13 1;
#X connect 16 0 17 0;
#X connect 17 0 6 3;
#X connect 17 0 18 0;
#X connect 18 0 7 3;
#X connect 19 0 20 0;
#X connect 19 0 15 0;
#X connect 19 0 15 1;
#X connect 20 0 6 2;
#X connect 20 0 7 2;
