#N canvas 714 35 846 778 10;
#X declare -path ../misc -path ../biquad;
#X obj 145 80 pack f 20;
#X obj 145 105 line~;
#X obj 78 80 pack f 20;
#X obj 78 105 line~;
#X obj 12 80 noise~;
#N canvas 0 23 450 300 init 0;
#X obj 33 97 s \$0-b0i;
#X msg 33 69 1;
#X obj 32 37 loadbang;
#X obj 165 96 s \$0-θi;
#X obj 105 96 s \$0-ri;
#X msg 103 70 0.9;
#X msg 163 70 1.59;
#X connect 1 0 0 0;
#X connect 2 0 1 0;
#X connect 2 0 5 0;
#X connect 2 0 6 0;
#X connect 5 0 4 0;
#X connect 6 0 3 0;
#X restore 290 12 pd init;
#X obj 78 61 nbx 5 14 0 1e+37 0 0 \$0-b0 \$0-b0i b0 0 -8 0 10 -262144
-1 -1 1 256;
#X obj 145 61 nbx 5 14 -1e+08 1e+08 0 0 \$0-b1 \$0-b1i b1 0 -8 0 10
-262144 -1 -1 0.0345645 256;
#X obj 12 499 fltr.response.amplitude \$0 biquad 0 15;
#X msg 667 97 \; pd dsp 0;
#X msg 667 64 \; pd dsp 1;
#X obj 17 158 fltr.output~;
#X obj 12 219 fltr.spectrogram~;
#X obj 378 219 fltr.difference biquad;
#X obj 378 499 fltr.response.phase \$0 biquad;
#X obj 211 80 pack f 20;
#X obj 211 105 line~;
#X obj 211 61 nbx 5 14 -999999 999999 0 0 \$0-b2 \$0-b2i b2 0 -8 0
10 -262144 -1 -1 0.81 256;
#X obj 406 36 fltr.to.coeff \$0, f 17;
#X obj 406 111 s \$0-a1i;
#X obj 599 111 s \$0-a2i;
#X obj 356 12 declare -path ../misc -path ../biquad;
#X obj 12 134 fltr.biquad~, f 56;
#X obj 278 80 pack f 20;
#X obj 278 105 line~;
#X obj 278 61 nbx 5 14 -1e+08 1e+08 0 0 \$0-a1 \$0-a1i a1 0 -8 0 10
-262144 -1 -1 0.0345645 256;
#X obj 345 80 pack f 20;
#X obj 345 105 line~;
#X obj 345 61 nbx 5 14 -999999 999999 0 0 \$0-a2 \$0-a2i a2 0 -8 0
10 -262144 -1 -1 0.81 256;
#X obj 406 136 fltr.to.coeff \$0, f 17;
#X obj 406 211 s \$0-b1i;
#X obj 599 211 s \$0-b2i;
#X text 12 13 The Biquad filter;
#X connect 0 0 1 0;
#X connect 1 0 22 2;
#X connect 2 0 3 0;
#X connect 3 0 22 1;
#X connect 4 0 22 0;
#X connect 6 0 2 0;
#X connect 7 0 0 0;
#X connect 15 0 16 0;
#X connect 16 0 22 3;
#X connect 17 0 15 0;
#X connect 18 0 19 0;
#X connect 18 1 20 0;
#X connect 22 0 11 0;
#X connect 22 0 12 0;
#X connect 23 0 24 0;
#X connect 24 0 22 4;
#X connect 25 0 23 0;
#X connect 26 0 27 0;
#X connect 27 0 22 5;
#X connect 28 0 26 0;
#X connect 29 0 30 0;
#X connect 29 1 31 0;
