#N canvas 219 180 747 523 10;
#X obj 29 100 inlet;
#X obj 180 100 inlet;
#X obj 29 194 t f f, f 17;
#X obj 29 304 * 1, f 6;
#X obj 29 280 sin;
#X obj 62 278 * -1;
#X obj 29 393 /, f 12;
#X obj 29 427 atan;
#X obj 29 452 outlet;
#X obj 128 452 outlet;
#X obj 29 170 fltr.loop.for 0 \$1 1;
#X obj 29 219 fltr.to.pi \$1;
#X text 29 77 b0;
#X text 79 77 b1;
#X text 129 77 b2;
#X text 179 77 a1;
#X text 229 77 a2;
#X obj 79 100 inlet;
#X obj 129 100 inlet;
#X obj 230 100 inlet;
#X obj 29 131 t b f, f 8;
#X obj 83 131 t b f, f 6;
#X obj 29 253 t f f f f, f 41;
#X obj 110 278 * 2;
#X obj 29 366 -;
#X obj 110 324 * 1, f 6;
#X obj 110 300 sin;
#X obj 130 131 t b f, f 6;
#X obj 191 280 cos;
#X obj 191 302 *;
#X obj 272 278 * 2;
#X obj 272 324 * 1, f 6;
#X obj 272 300 cos;
#X obj 191 364 *;
#X obj 191 386 + 1;
#X text 19 29 Θ(ω) = atan((-b1 * sin(ωτ) - b2 * sin(2ωτ)) / (1
+ b1 * cos(ωτ) + b2 * cos(2ωτ)), f 61;
#X connect 0 0 20 0;
#X connect 1 0 21 0;
#X connect 2 0 11 0;
#X connect 2 1 9 0;
#X connect 3 0 24 0;
#X connect 4 0 3 0;
#X connect 5 0 3 1;
#X connect 6 0 7 0;
#X connect 7 0 8 0;
#X connect 10 0 2 0;
#X connect 11 0 22 0;
#X connect 19 0 27 0;
#X connect 20 0 10 0;
#X connect 21 0 10 0;
#X connect 21 1 5 0;
#X connect 21 1 29 1;
#X connect 22 0 4 0;
#X connect 22 1 23 0;
#X connect 22 2 28 0;
#X connect 22 3 30 0;
#X connect 23 0 26 0;
#X connect 24 0 6 0;
#X connect 25 0 24 1;
#X connect 26 0 25 0;
#X connect 27 0 10 0;
#X connect 27 1 25 1;
#X connect 27 1 31 1;
#X connect 28 0 29 0;
#X connect 29 0 33 0;
#X connect 30 0 32 0;
#X connect 31 0 33 1;
#X connect 32 0 31 0;
#X connect 33 0 34 0;
#X connect 34 0 6 1;
#X coords 0 523 1 522 366 40 0;
