#N canvas 350 113 765 649 10;
#X obj 23 88 inlet;
#X obj 174 88 inlet;
#X obj 23 182 t f f, f 17;
#X obj 23 550 outlet;
#X obj 122 440 outlet;
#X text 23 65 b0;
#X text 73 65 b1;
#X text 123 65 b2;
#X text 173 65 a1;
#X text 223 65 a2;
#X obj 73 88 inlet;
#X obj 123 88 inlet;
#X obj 224 88 inlet;
#X obj 23 119 t b f, f 8;
#X obj 78 119 t b f, f 6;
#X obj 23 158 fltr.loop.for 0 \$1 1;
#X obj 23 207 fltr.to.pi \$1;
#X obj 23 441 sqrt, f 5;
#X obj 23 229 t f f f f, f 27;
#X obj 23 251 cos;
#X obj 23 273 *;
#X obj 123 119 t b f, f 6;
#X obj 76 295 *;
#X obj 76 251 * 2;
#X obj 76 273 cos;
#X obj 23 325 +;
#X obj 23 369 t f f;
#X obj 23 391 *, f 5;
#X obj 23 413 +;
#X obj 129 273 *;
#X obj 129 251 sin;
#X obj 154 251 * -1;
#X obj 186 295 *;
#X obj 186 251 * 2;
#X obj 186 273 sin;
#X obj 129 325 -;
#X obj 129 349 t f f;
#X obj 129 371 *, f 5;
#X text 13 17 G(ω) = b0 / √((1 + a1 * cos(ωτ) + a2 * cos(2ωτ))^2
+ (-a1 * sin(ωτ) - a2 * sin(2ωτ))^2), f 61;
#X obj 23 463 t b f;
#X obj 23 485 f;
#X obj 23 507 /;
#X obj 23 347 + 1;
#X obj 23 531 clip 0 15;
#X connect 0 0 13 0;
#X connect 1 0 14 0;
#X connect 2 0 16 0;
#X connect 2 1 4 0;
#X connect 12 0 21 0;
#X connect 13 0 15 0;
#X connect 13 1 40 1;
#X connect 14 0 15 0;
#X connect 14 1 20 1;
#X connect 14 1 31 0;
#X connect 15 0 2 0;
#X connect 16 0 18 0;
#X connect 17 0 39 0;
#X connect 18 0 19 0;
#X connect 18 1 23 0;
#X connect 18 2 30 0;
#X connect 18 3 33 0;
#X connect 19 0 20 0;
#X connect 20 0 25 0;
#X connect 21 0 15 0;
#X connect 21 1 22 1;
#X connect 21 1 32 1;
#X connect 22 0 25 1;
#X connect 23 0 24 0;
#X connect 24 0 22 0;
#X connect 25 0 42 0;
#X connect 26 0 27 0;
#X connect 26 1 27 1;
#X connect 27 0 28 0;
#X connect 28 0 17 0;
#X connect 29 0 35 0;
#X connect 30 0 29 0;
#X connect 31 0 29 1;
#X connect 32 0 35 1;
#X connect 33 0 34 0;
#X connect 34 0 32 0;
#X connect 35 0 36 0;
#X connect 36 0 37 0;
#X connect 36 1 37 1;
#X connect 37 0 28 1;
#X connect 39 0 40 0;
#X connect 39 1 41 1;
#X connect 40 0 41 0;
#X connect 41 0 43 0;
#X connect 42 0 26 0;
#X connect 43 0 3 0;
#X coords 0 649 1 648 366 40 0;
