#N canvas 0 22 450 300 12;
#X obj 125 28 inlet;
#X obj 125 53 + 1;
#X obj 125 78 / \$1;
#X obj 125 103 * 3.14159;
#X obj 125 128 outlet;
#X connect 0 0 1 0;
#X connect 1 0 2 0;
#X connect 2 0 3 0;
#X connect 3 0 4 0;
