#N struct 1003-square float x1 float y1 float x2 float y2;
#N canvas 278 197 1137 449 12;
#X obj 180 204 pointer;
#N canvas 134 52 838 687 mydata 0;
#X scalar 1003-square 0.707089 0.707125 0.804255 0.328261 \;;
#X coords 0 0 1000 500 200 100 2 0 0;
#X restore 293 235 pd mydata;
#X obj 31 19 nbx 5 14 -1e+37 1e+37 0 0 empty empty empty 0 -8 0 10
-262144 -1 -1 0.804255 256;
#X obj 161 20 nbx 5 14 -1e+37 1e+37 0 0 empty empty empty 0 -8 0 10
-262144 -1 -1 0 256;
#X obj 92 19 nbx 5 14 -1e+37 1e+37 0 0 empty empty empty 0 -8 0 10
-262144 -1 -1 0.328261 256;
#X obj 498 60 drawpolygon 0 1 500 0 500 500;
#X obj 39 95 t l b b;
#X obj 39 65 pack;
#X obj 92 38 t b f;
#X floatatom 934 204 0 0 0 0 - - -;
#X floatatom 785 204 0 0 0 0 - - -;
#X obj 392 63 print;
#X obj 862 140 s pd-mydata;
#X msg 861 98 editmode 1;
#X obj 785 65 route change;
#N canvas 0 22 450 300 radius 0;
#X obj 126 54 inlet;
#X obj 187 54 inlet;
#X obj 126 79 t f f;
#X obj 187 79 t f f;
#X obj 126 104 *, f 5;
#X obj 187 104 *, f 5;
#X obj 126 159 +;
#X obj 126 184 sqrt;
#X obj 126 209 outlet;
#X connect 0 0 2 0;
#X connect 1 0 3 0;
#X connect 2 0 4 0;
#X connect 2 1 4 1;
#X connect 3 0 5 0;
#X connect 3 1 5 1;
#X connect 4 0 6 0;
#X connect 5 0 6 1;
#X connect 6 0 7 0;
#X connect 7 0 8 0;
#X restore 785 277 pd radius;
#N canvas 248 68 989 515 angle 0;
#X obj 137 27 inlet;
#X obj 198 27 inlet;
#X obj 137 92 t b f;
#X obj 137 117 f 0, f 8;
#X obj 137 142 /, f 5;
#X obj 137 167 atan;
#X obj 137 272 outlet;
#N canvas 0 22 450 300 flager 0;
#X obj 252 113 > 0;
#X obj 252 80 t f f f, f 11;
#X obj 252 138 << 2;
#X obj 294 138 << 1;
#X obj 337 138 << 0;
#X obj 92 113 > 0;
#X obj 92 80 t f f f, f 11;
#X obj 252 163 |;
#X obj 252 188 |;
#X obj 92 163 |;
#X obj 92 188 |;
#X obj 177 138 << 3;
#X obj 134 138 << 4;
#X obj 92 138 << 5;
#X obj 92 213 |;
#X obj 337 113 < 0;
#X obj 294 113 == 0;
#X obj 177 113 < 0;
#X obj 134 113 == 0;
#X obj 92 49 inlet;
#X obj 252 49 inlet;
#X obj 92 238 outlet;
#X connect 0 0 2 0;
#X connect 1 0 0 0;
#X connect 1 1 16 0;
#X connect 1 2 15 0;
#X connect 2 0 7 0;
#X connect 3 0 7 1;
#X connect 4 0 8 1;
#X connect 5 0 13 0;
#X connect 6 0 5 0;
#X connect 6 1 18 0;
#X connect 6 2 17 0;
#X connect 7 0 8 0;
#X connect 8 0 14 1;
#X connect 9 0 10 0;
#X connect 10 0 14 0;
#X connect 11 0 10 1;
#X connect 12 0 9 1;
#X connect 13 0 9 0;
#X connect 14 0 21 0;
#X connect 15 0 4 0;
#X connect 16 0 3 0;
#X connect 17 0 11 0;
#X connect 18 0 12 0;
#X connect 19 0 6 0;
#X connect 20 0 1 0;
#X restore 212 108 pd flager;
#X obj 137 52 t f f;
#X obj 137 202 * 0;
#X obj 137 227 + 0;
#N canvas 303 411 778 387 quotioner 0;
#N canvas 0 22 467 372 x==0 0;
#X obj 185 229 &&;
#X obj 185 254 outlet;
#X obj 185 112 inlet;
#X obj 185 142 t f f, f 6;
#X obj 185 174 & 16;
#X obj 230 174 & 4;
#X connect 0 0 1 0;
#X connect 2 0 3 0;
#X connect 3 0 4 0;
#X connect 3 1 5 0;
#X connect 4 0 0 0;
#X connect 5 0 0 1;
#X restore 375 149 pd x==0 && y>0;
#N canvas 0 22 467 372 x==0 0;
#X obj 185 229 &&;
#X obj 185 254 outlet;
#X obj 185 112 inlet;
#X obj 185 142 t f f, f 6;
#X obj 185 174 & 16;
#X obj 230 174 & 1;
#X connect 0 0 1 0;
#X connect 2 0 3 0;
#X connect 3 0 4 0;
#X connect 3 1 5 0;
#X connect 4 0 0 0;
#X connect 5 0 0 1;
#X restore 496 149 pd x==0 && y<0;
#N canvas 0 22 467 372 x==0 0;
#X obj 185 229 &&;
#X obj 185 254 outlet;
#X obj 185 112 inlet;
#X obj 185 142 t f f, f 6;
#X obj 230 174 & 2;
#X obj 185 174 & 16;
#X connect 0 0 1 0;
#X connect 2 0 3 0;
#X connect 3 0 5 0;
#X connect 3 1 4 0;
#X connect 4 0 0 1;
#X connect 5 0 0 0;
#X restore 617 149 pd x==0 && y==0;
#X obj 15 174 sel 1;
#X obj 15 199 f 1;
#X obj 46 199 f 0;
#X obj 105 174 sel 1;
#X obj 105 199 f 1;
#X obj 255 174 sel 1;
#X obj 255 199 f 1;
#X obj 341 18 inlet;
#X obj 211 309 outlet;
#X obj 281 309 outlet;
#X obj 375 174 sel 1;
#X obj 375 199 f 0;
#X obj 406 199 f 1.5708;
#X obj 495 174 sel 1;
#X obj 495 199 f 0;
#X obj 617 174 sel 1;
#X obj 617 199 f 0;
#X obj 648 199 f 0;
#N canvas 299 418 467 372 x>0 0;
#X obj 185 174 & 32;
#X obj 185 254 outlet;
#X obj 185 112 inlet;
#X obj 185 199 == 32;
#X connect 0 0 3 0;
#X connect 2 0 0 0;
#X connect 3 0 1 0;
#X restore 15 149 pd x>0;
#N canvas 0 22 467 372 x<0 0;
#X obj 185 229 &&;
#X obj 185 254 outlet;
#X obj 185 112 inlet;
#X obj 185 174 & 8;
#X obj 230 174 & 2;
#X obj 270 174 & 4;
#X obj 230 199 ||;
#X obj 185 142 t f f f;
#X connect 0 0 1 0;
#X connect 2 0 7 0;
#X connect 3 0 0 0;
#X connect 4 0 6 0;
#X connect 5 0 6 1;
#X connect 6 0 0 1;
#X connect 7 0 3 0;
#X connect 7 1 4 0;
#X connect 7 2 5 0;
#X restore 105 149 pd x<0 && y>=0;
#X obj 136 199 f 3.14159;
#N canvas 0 22 467 372 x<0 0;
#X obj 185 229 &&;
#X obj 185 254 outlet;
#X obj 185 112 inlet;
#X obj 185 174 & 8;
#X obj 230 174 & 1;
#X obj 185 142 t f f;
#X connect 0 0 1 0;
#X connect 2 0 5 0;
#X connect 3 0 0 0;
#X connect 4 0 0 1;
#X connect 5 0 3 0;
#X connect 5 1 4 0;
#X restore 255 149 pd x<0 && y<0;
#X obj 286 199 f -3.14159;
#X obj 526 199 f -1.5708;
#X connect 0 0 13 0;
#X connect 1 0 16 0;
#X connect 2 0 18 0;
#X connect 3 0 4 0;
#X connect 3 0 5 0;
#X connect 4 0 11 0;
#X connect 5 0 12 0;
#X connect 6 0 7 0;
#X connect 6 0 23 0;
#X connect 7 0 11 0;
#X connect 8 0 9 0;
#X connect 8 0 25 0;
#X connect 9 0 11 0;
#X connect 10 0 21 0;
#X connect 10 0 22 0;
#X connect 10 0 0 0;
#X connect 10 0 1 0;
#X connect 10 0 2 0;
#X connect 10 0 24 0;
#X connect 13 0 14 0;
#X connect 13 0 15 0;
#X connect 14 0 11 0;
#X connect 15 0 12 0;
#X connect 16 0 17 0;
#X connect 16 0 26 0;
#X connect 17 0 11 0;
#X connect 18 0 19 0;
#X connect 18 0 20 0;
#X connect 19 0 11 0;
#X connect 20 0 12 0;
#X connect 21 0 3 0;
#X connect 22 0 6 0;
#X connect 23 0 12 0;
#X connect 24 0 8 0;
#X connect 25 0 12 0;
#X connect 26 0 12 0;
#X restore 212 144 pd quotioner;
#X connect 0 0 8 0;
#X connect 1 0 3 1;
#X connect 1 0 7 1;
#X connect 2 0 3 0;
#X connect 2 1 4 1;
#X connect 3 0 4 0;
#X connect 4 0 5 0;
#X connect 5 0 9 0;
#X connect 7 0 11 0;
#X connect 8 0 2 0;
#X connect 8 1 7 0;
#X connect 9 0 10 0;
#X connect 10 0 6 0;
#X connect 11 0 9 1;
#X connect 11 1 10 1;
#X restore 873 277 pd angle;
#X obj 785 302 clip 0 1;
#X obj 499 15 struct \$0-square float x1 float y1 float x2 float y2
;
#X obj 785 180 get \$0-square x2 y2;
#N canvas 0 22 450 300 absi 0;
#X obj 161 48 inlet;
#X obj 221 48 inlet;
#X obj 221 73 cos;
#X obj 161 148 *, f 5;
#X obj 161 123 t b f;
#X obj 161 173 outlet;
#X connect 0 0 3 0;
#X connect 1 0 2 0;
#X connect 2 0 4 0;
#X connect 3 0 5 0;
#X connect 4 0 3 0;
#X connect 4 1 3 1;
#X restore 788 363 pd absi;
#N canvas 0 23 450 300 ordi 0;
#X obj 161 48 inlet;
#X obj 221 48 inlet;
#X obj 161 148 *, f 5;
#X obj 161 123 t b f;
#X obj 161 173 outlet;
#X obj 221 73 sin;
#X connect 0 0 2 0;
#X connect 1 0 5 0;
#X connect 2 0 4 0;
#X connect 3 0 2 0;
#X connect 3 1 2 1;
#X connect 5 0 3 0;
#X restore 878 363 pd ordi;
#X obj 788 388 s zazax;
#X obj 878 388 s zazay;
#X obj 154 36 r zazax;
#X obj 244 36 r zazay;
#X msg 180 181 traverse pd-mydata \, next;
#X obj 244 61 t b f;
#X obj 244 86 f 1;
#X obj 244 111 -;
#X obj 692 399 nbx 5 14 -1e+37 1e+37 0 0 empty empty empty 0 -8 0 10
-262144 -1 -1 0.387517 256;
#X obj 712 419 nbx 5 14 -1e+37 1e+37 0 0 empty empty empty 0 -8 0 10
-262144 -1 -1 0.328261 256;
#X obj 498 200 drawpolygon 1 1 x2(-1:1)(25:965) y2(0:1)(485:25) x2(-1:1)(35:975)
y2(0:1)(485:25) x2(-1:1)(35:975) y2(0:1)(495:35) x2(-1:1)(25:965) y2(0:1)(495:35)
x2(-1:1)(25:965) y2(0:1)(485:25), f 34;
#X obj 31 285 set \$0-square x2 y2;
#X connect 0 0 33 2;
#X connect 2 0 7 0;
#X connect 4 0 8 0;
#X connect 6 0 33 0;
#X connect 6 1 26 0;
#X connect 7 0 6 0;
#X connect 8 0 7 0;
#X connect 8 1 7 1;
#X connect 9 0 16 1;
#X connect 9 0 15 1;
#X connect 10 0 15 0;
#X connect 10 0 16 0;
#X connect 13 0 12 0;
#X connect 14 0 19 0;
#X connect 15 0 17 0;
#X connect 16 0 20 1;
#X connect 16 0 21 1;
#X connect 16 0 30 0;
#X connect 17 0 20 0;
#X connect 17 0 21 0;
#X connect 18 0 14 0;
#X connect 19 0 10 0;
#X connect 19 1 9 0;
#X connect 20 0 22 0;
#X connect 21 0 23 0;
#X connect 21 0 31 0;
#X connect 24 0 2 0;
#X connect 25 0 27 0;
#X connect 25 0 4 0;
#X connect 26 0 0 0;
#X connect 27 0 28 0;
#X connect 27 1 29 1;
#X connect 28 0 29 0;
