#N struct 1003-square float x;
#N canvas 199 485 1007 375 12;
#X obj 395 191 pointer;
#X msg 221 29 bang;
#X text 262 28 click here to re-initialize;
#N canvas 134 52 456 335 mydata 0;
#X scalar 1003-square 0 \;;
#X coords 0 0 1000 1000 200 200 2 0 0;
#X restore 650 134 pd mydata;
#X msg 395 128 \; pd-mydata clear;
#X msg 395 168 traverse pd-mydata \, bang;
#X obj 31 19 nbx 5 14 -1e+37 1e+37 0 0 empty empty empty 0 -8 0 10
-262144 -1 -1 0 256;
#X obj 161 20 nbx 5 14 -1e+37 1e+37 0 0 empty empty empty 0 -8 0 10
-262144 -1 -1 0 256;
#X text 138 220 x \, y \, x+w \, y+w;
#X obj 93 177 +;
#X obj 124 177 +;
#X obj 31 214 pack f f f f;
#X obj 31 130 f;
#X obj 78 130 f;
#X obj 31 45 t f b;
#X obj 92 19 nbx 5 14 -1e+37 1e+37 0 0 empty empty empty 0 -8 0 10
-262144 -1 -1 0 256;
#X obj 41 87 t b f b;
#X obj 116 42 t b f b;
#X msg 31 245 10 10 john;
#X obj 499 15 struct \$0-square float x;
#X obj 184 294 append \$0-square x;
#X obj 209 65 t f b b;
#X obj 498 48 drawnumber 5 0 0 0;
#X connect 0 0 20 1;
#X connect 1 0 21 0;
#X connect 5 0 0 0;
#X connect 6 0 14 0;
#X connect 7 0 17 0;
#X connect 7 0 21 0;
#X connect 9 0 11 2;
#X connect 10 0 11 3;
#X connect 11 0 18 0;
#X connect 12 0 11 0;
#X connect 12 0 9 0;
#X connect 13 0 11 1;
#X connect 13 0 10 0;
#X connect 14 0 12 0;
#X connect 15 0 16 0;
#X connect 16 0 12 0;
#X connect 16 1 13 0;
#X connect 17 0 13 0;
#X connect 17 0 12 0;
#X connect 17 1 10 1;
#X connect 17 1 9 1;
#X connect 21 0 18 0;
#X connect 21 0 20 0;
#X connect 21 1 5 0;
#X connect 21 2 4 0;
