#N canvas 350 113 747 523 10;
#X obj 29 100 inlet;
#X obj 180 100 inlet;
#X obj 29 194 t f f, f 17;
#X obj 29 492 outlet;
#X obj 128 452 outlet;
#X text 29 77 b0;
#X text 79 77 b1;
#X text 129 77 b2;
#X text 179 77 a1;
#X text 229 77 a2;
#X obj 79 100 inlet;
#X obj 129 100 inlet;
#X obj 230 100 inlet;
#X obj 29 131 t b f, f 8;
#X obj 84 131 t b f, f 6;
#X obj 29 170 fltr.loop.for 0 \$1 1;
#X obj 29 219 fltr.to.pi \$1;
#X obj 29 453 sqrt, f 5;
#X obj 29 473 clip 0 4;
#X obj 29 241 t f f f f, f 27;
#X obj 29 263 cos;
#X obj 29 285 *;
#X obj 129 131 t b f, f 6;
#X obj 82 307 *;
#X obj 82 263 * 2;
#X obj 82 285 cos;
#X obj 29 337 +;
#X obj 29 359 +;
#X obj 74 330 t f f;
#X obj 74 352 *, f 5;
#X obj 29 381 t f f;
#X obj 29 403 *, f 5;
#X obj 29 425 +;
#X obj 135 285 *;
#X obj 135 263 sin;
#X obj 160 263 * -1;
#X text 19 29 G(ω) = √((b0^2 + b1 * cos(ωτ) + b2 * cos(2ωτ))^2
+ (-b1 * sin(ωτ) - b2 * sin(2ωτ))^2), f 61;
#X obj 192 307 *;
#X obj 192 263 * 2;
#X obj 192 285 sin;
#X obj 135 337 -;
#X obj 135 361 t f f;
#X obj 135 383 *, f 5;
#X connect 0 0 13 0;
#X connect 2 0 16 0;
#X connect 2 1 4 0;
#X connect 10 0 14 0;
#X connect 11 0 22 0;
#X connect 13 0 15 0;
#X connect 13 1 28 0;
#X connect 14 0 15 0;
#X connect 14 1 21 1;
#X connect 14 1 35 0;
#X connect 15 0 2 0;
#X connect 16 0 19 0;
#X connect 17 0 18 0;
#X connect 18 0 3 0;
#X connect 19 0 20 0;
#X connect 19 1 24 0;
#X connect 19 2 34 0;
#X connect 19 3 38 0;
#X connect 20 0 21 0;
#X connect 21 0 26 0;
#X connect 22 0 15 0;
#X connect 22 1 23 1;
#X connect 22 1 37 1;
#X connect 23 0 26 1;
#X connect 24 0 25 0;
#X connect 25 0 23 0;
#X connect 26 0 27 0;
#X connect 27 0 30 0;
#X connect 28 0 29 0;
#X connect 28 1 29 1;
#X connect 29 0 27 1;
#X connect 30 0 31 0;
#X connect 30 1 31 1;
#X connect 31 0 32 0;
#X connect 32 0 17 0;
#X connect 33 0 40 0;
#X connect 34 0 33 0;
#X connect 35 0 33 1;
#X connect 37 0 40 1;
#X connect 38 0 39 0;
#X connect 39 0 37 0;
#X connect 40 0 41 0;
#X connect 41 0 42 0;
#X connect 41 1 42 1;
#X connect 42 0 32 1;
#X coords 0 523 1 522 366 40 0;
