#N canvas 725 179 479 402 12;
#X obj 97 50 inlet~;
#X obj 227 50 inlet~;
#X obj 158 50 inlet~;
#X obj 97 105 *~, f 8;
#X obj 292 50 inlet~;
#X obj 97 325 outlet~;
#X obj 126 142 rzero_rev~ 0;
#X obj 126 170 *~, f 13;
#X obj 292 95 *~ 1;
#X obj 143 203 rzero_rev~ 0;
#X obj 143 231 *~, f 19;
#X obj 227 75 *~ 1;
#X obj 97 285 +~, f 4;
#X connect 0 0 3 0;
#X connect 1 0 11 0;
#X connect 2 0 3 1;
#X connect 3 0 6 0;
#X connect 3 0 12 0;
#X connect 4 0 8 0;
#X connect 6 0 7 0;
#X connect 6 0 9 0;
#X connect 7 0 12 1;
#X connect 8 0 10 1;
#X connect 9 0 10 0;
#X connect 10 0 12 1;
#X connect 11 0 7 1;
#X connect 12 0 5 0;
