#N canvas 295 227 731 553 10;
#X obj 112 484 tabwrite \$0-phase, f 32;
#X obj 489 390 s \$0-phase;
#X obj 489 274 loadbang;
#X msg 529 347 yticks 0 0.78539 2;
#X msg 489 317 xticks 0 512 2;
#N canvas 0 22 450 278 (subpatch) 0;
#X array \$0-phase 2048 float 4;
#X coords 0 1.57079 2047 -1.57079 300 140 2 0 0;
#X restore 127 174 graph;
#X obj 101 153 cnv 15 344 20 empty empty empty 20 12 0 14 -262144 -66577
0;
#X text 111 235 0;
#X text 121 321 0;
#X text 214 103 Phase Response Θ(ω);
#X text 197 313 π;
#X text 197 320 –;
#X text 272 313 π;
#X text 272 320 –;
#X text 272 329 4;
#X text 421 313 π;
#X text 421 320 –;
#X text 421 329 2;
#X text 197 329 8;
#X text 347 320 –;
#X text 347 329 8;
#X text 344 313 3π;
#X text 111 299 π;
#X text 111 315 2;
#X text 105 306 -–;
#X text 111 195 π;
#X text 111 202 –;
#X text 111 211 4;
#X text 111 263 π;
#X text 111 279 4;
#X text 105 270 -–;
#X text 111 160 π;
#X text 111 167 –;
#X text 111 176 2;
#X text 100 344 Phase Shift θ (rad) / Normalized Frequency ω (rad/sample)
;
#X obj 112 375 r \$2-b0;
#X obj 159 375 r \$2-b1;
#X obj 206 375 r \$2-b2;
#X obj 301 375 r \$2-a2;
#X obj 253 375 r \$2-a1;
#X obj 112 449 fltr.\$1.phase 2048, f 32;
#X obj 100 122 fltr.\$1.phase.eq, f 32;
#X connect 2 0 4 0;
#X connect 2 0 3 0;
#X connect 3 0 1 0;
#X connect 4 0 1 0;
#X connect 35 0 40 0;
#X connect 36 0 40 1;
#X connect 37 0 40 2;
#X connect 38 0 40 4;
#X connect 39 0 40 3;
#X connect 40 0 0 0;
#X connect 40 1 0 1;
#X coords 0 -1 1 1 346 260 2 100 100;
