#N canvas 517 140 878 526 10;
#X obj 493 17 loadbang;
#X msg 493 110 xticks 0 512 2;
#N canvas 0 22 450 278 (subpatch) 0;
#X array \$0-amp 2048 float 4;
#X coords 0 2 2047 0 300 140 2 0 0;
#X restore 127 174 graph;
#X text 121 321 0;
#X text 197 313 π;
#X text 197 320 –;
#X text 272 313 π;
#X text 272 320 –;
#X text 272 329 4;
#X text 421 313 π;
#X text 421 320 –;
#X text 421 329 2;
#X text 197 329 8;
#X text 347 320 –;
#X text 347 329 8;
#X text 344 313 3π;
#X text 214 103 Amplitude Response G(ω);
#X text 146 344 Gain g / Normalized Frequency ω (rad/sample);
#X obj 112 375 r \$1-b0;
#X obj 159 375 r \$1-b1;
#X obj 206 376 r \$1-b2;
#X obj 253 375 r \$1-a1;
#X obj 301 375 r \$1-a2;
#X obj 121 153 cnv 15 300 20 empty empty empty 20 12 0 14 -262144 -66577
0;
#X obj 112 484 tabwrite \$0-amp, f 32;
#X obj 493 403 s \$0-amp;
#X obj 100 122 fltr.\$2.amplitude.eq, f 32;
#X obj 112 449 fltr.\$2.amplitude 2048, f 32;
#X obj 687 177 / 4;
#X obj 687 133 f \$4;
#X obj 687 155 - \$3;
#X obj 640 133 f \$3;
#X obj 640 199 pack f f;
#X msg 640 221 yticks \$1 \$2 1;
#X obj 593 155 until;
#X obj 593 134 f 5;
#X obj 593 287 list;
#X obj 624 177 + 0;
#X obj 593 309 list trim;
#X obj 593 177 f \$3;
#X obj 593 265 list prepend ylabel -40;
#X obj 593 199 * 10;
#X obj 593 221 int;
#X obj 593 243 / 10;
#X obj 593 111 t b b b b, f 24;
#X obj 734 138 pack \$3 \$4;
#X msg 734 176 bounds 0 \$2 2047 \$1;
#X connect 0 0 1 0;
#X connect 0 0 44 0;
#X connect 1 0 25 0;
#X connect 18 0 27 0;
#X connect 19 0 27 1;
#X connect 20 0 27 2;
#X connect 21 0 27 3;
#X connect 22 0 27 4;
#X connect 27 0 24 0;
#X connect 27 1 24 1;
#X connect 28 0 32 1;
#X connect 28 0 37 1;
#X connect 29 0 30 0;
#X connect 30 0 28 0;
#X connect 31 0 32 0;
#X connect 32 0 33 0;
#X connect 33 0 25 0;
#X connect 34 0 39 0;
#X connect 35 0 34 0;
#X connect 36 0 38 0;
#X connect 36 0 40 1;
#X connect 37 0 39 1;
#X connect 38 0 25 0;
#X connect 39 0 37 0;
#X connect 39 0 41 0;
#X connect 40 0 36 0;
#X connect 41 0 42 0;
#X connect 42 0 43 0;
#X connect 43 0 40 0;
#X connect 44 0 35 0;
#X connect 44 1 31 0;
#X connect 44 2 29 0;
#X connect 44 3 45 0;
#X connect 45 0 46 0;
#X connect 46 0 25 0;
#X coords 0 -1 1 1 346 260 2 100 100;
