#N canvas 572 140 731 553 10;
#X obj 489 224 loadbang;
#X msg 489 317 xticks 0 512 2;
#N canvas 0 22 450 278 (subpatch) 0;
#X array \$0-amp 2048 float 4;
#X coords 0 10 2047 0 300 140 2 0 0;
#X restore 127 174 graph;
#X text 121 321 0;
#X text 197 313 π;
#X text 197 320 –;
#X text 272 313 π;
#X text 272 320 –;
#X text 272 329 4;
#X text 421 313 π;
#X text 421 320 –;
#X text 421 329 2;
#X text 197 329 8;
#X text 347 320 –;
#X text 347 329 8;
#X text 344 313 3π;
#X text 214 103 Amplitude Response G(ω);
#X text 146 344 Gain g / Normalized Frequency ω (rad/sample);
#X obj 112 375 r \$1-b0;
#X obj 159 375 r \$1-b1;
#X obj 206 376 r \$1-b2;
#X obj 253 375 r \$1-a1;
#X obj 301 375 r \$1-a2;
#X obj 121 153 cnv 15 300 20 empty empty empty 20 12 0 14 -262144 -66577
0;
#X obj 100 122 fltr.\$2.amplitude.eq, f 32;
#X obj 112 484 tabwrite \$0-amp, f 32;
#X obj 592 262 pack \$3 \$4;
#X obj 587 223 bng 15 250 50 0 empty empty empty 17 7 0 10 -262144
-1 -1;
#X obj 646 338 print;
#X obj 489 390 s \$0-amp;
#X obj 112 449 fltr.\$2.amplitude 2048, f 32;
#X msg 592 300 bounds 0 \$2 2047 \$3;
#X msg 529 347 yticks 0 1 1;
#X msg 429 422 ylabel -60 0 2 4 6 8 10;
#X connect 0 0 1 0;
#X connect 0 0 32 0;
#X connect 0 0 26 0;
#X connect 0 0 33 0;
#X connect 1 0 29 0;
#X connect 18 0 30 0;
#X connect 19 0 30 1;
#X connect 20 0 30 2;
#X connect 21 0 30 3;
#X connect 22 0 30 4;
#X connect 26 0 31 0;
#X connect 27 0 26 0;
#X connect 30 0 25 0;
#X connect 30 1 25 1;
#X connect 31 0 28 0;
#X connect 31 0 29 0;
#X connect 32 0 29 0;
#X connect 33 0 29 0;
#X coords 0 -1 1 1 346 260 2 100 100;
