#N canvas 40 177 1295 562 12;
#X obj 383 40 c.blackboard @size 325 121 @fontname "Helvetica" @fontweight
"normal" @fontslant "roman" @fontsize 11 @receive "(null)" @send "(null)"
@chalkmode 1 @bgcolor 0.75 0.75 0.75 1 @bdcolor 0.5 0.5 0.5 1;
#X obj 488 77 loadbang;
#N canvas 137 147 680 684 ftr.representation 0;
#X obj 399 70 inlet;
#X obj 483 70 inlet;
#X obj 399 322 cos;
#X obj 399 218 f 0;
#X obj 439 218 + 1;
#X obj 399 294 * 3.14159;
#X obj 492 183 f 0;
#X obj 399 372 * 2;
#X obj 399 532 sqrt;
#X obj 399 243 t f f, f 18;
#X obj 399 587 tabwrite \$0-amp, f 18;
#X obj 399 131 t b f b, f 12;
#X obj 399 347 * 1, f 6;
#X obj 399 423 + 1;
#X obj 460 371 *, f 5;
#X obj 460 346 t f f;
#X obj 422 99 nbx 5 14 -1e+37 1e+37 0 0 empty empty empty 0 -8 0 10
-262144 -1 -1 0 256;
#X obj 399 156 f 2048;
#X obj 399 269 / 2048;
#X obj 399 183 until 2048;
#X obj 509 131 t b f b, f 12;
#X obj 399 397 + 0, f 8;
#X obj 512 99 nbx 5 14 -1e+37 1e+37 0 0 empty empty empty 0 -8 0 10
-262144 -1 -1 0 256;
#X obj 101 101 cnv 15 244 198 empty empty empty 20 12 0 14 -195568
-66577 0;
#N canvas 0 23 450 278 (subpatch) 0;
#X array \$0-amp 2048 float 4;
#X coords 0 10 2047 0 200 140 2 0 0;
#X restore 141 124 graph;
#X obj 101 101 cnv 15 244 20 empty empty empty 20 12 0 14 -195568 -66577
0;
#X text 108 246 0;
#X msg 104 446 yticks 0 1 1;
#X msg 104 416 xticks 0 512 1;
#X obj 118 501 s \$0-amp;
#X obj 422 38 r \$0-b0;
#X obj 399 508 /, f 5;
#X obj 399 452 t b f;
#X obj 399 477 f;
#X obj 529 44 r \$0-a1;
#X obj 485 477 nbx 5 14 -1e+37 1e+37 0 0 empty empty empty 0 -8 0 10
-262144 -1 -1 0 256;
#X text 100 123 10;
#X text 108 183 5;
#X obj 399 557 clip 0 10;
#X text 135 277 0;
#X text 224 277 SR/4;
#X text 308 277 SR/2;
#X text 113 271 /;
#X text 118 277 f;
#X text 144 101 Amplitude Response G(w);
#X text 108 266 g;
#X connect 0 0 11 0;
#X connect 1 0 20 0;
#X connect 2 0 12 0;
#X connect 3 0 4 0;
#X connect 3 0 9 0;
#X connect 4 0 3 1;
#X connect 5 0 2 0;
#X connect 6 0 3 1;
#X connect 7 0 21 0;
#X connect 8 0 38 0;
#X connect 9 0 18 0;
#X connect 9 1 10 1;
#X connect 11 0 17 0;
#X connect 11 1 33 1;
#X connect 11 2 6 0;
#X connect 12 0 7 0;
#X connect 13 0 32 0;
#X connect 14 0 21 1;
#X connect 15 0 14 0;
#X connect 15 1 14 1;
#X connect 16 0 11 0;
#X connect 17 0 19 0;
#X connect 18 0 5 0;
#X connect 19 0 3 0;
#X connect 20 0 17 0;
#X connect 20 1 12 1;
#X connect 20 1 15 0;
#X connect 20 2 6 0;
#X connect 21 0 13 0;
#X connect 22 0 20 0;
#X connect 27 0 29 0;
#X connect 28 0 29 0;
#X connect 30 0 11 0;
#X connect 31 0 8 0;
#X connect 32 0 33 0;
#X connect 32 1 31 1;
#X connect 33 0 31 0;
#X connect 34 0 20 0;
#X connect 38 0 10 0;
#X coords 0 -1 1 1 246 200 2 100 100;
#X restore 302 211 pd ftr.representation;
#X obj 169 88 pack f 20;
#X obj 169 113 line~;
#X obj 90 88 pack f 20;
#X obj 90 113 line~;
#X obj 12 191 ftr.spectrograme~;
#X obj 12 36 noise~;
#X obj 92 56 loadbang;
#X obj 271 23 f 1;
#X obj 229 128 c.dsp~ @size 49 49 @fontname "Helvetica" @fontweight
"normal" @fontslant "roman" @fontsize 11 @receive "(null)" @send "(null)"
@bgcolor 0.75 0.75 0.75 1 @bdcolor 0.5 0.5 0.5 1 @logocolor 0 0.6 0
0.8;
#X obj 90 56 c.number @size 72 20 @fontname "DejaVu" @fontweight "normal"
@fontslant "roman" @fontsize 12 @receive "(null)" @send "(null)" @presetname
"(null)" @min -1 @max 1 @minmax -1 1 @decimal 6 @bgcolor 0.75 0.75
0.75 1 @bdcolor 0.5 0.5 0.5 1 @textcolor 0 0 0 1;
#X obj 269 79 loadbang;
#X obj 169 55 f 1;
#X obj 166 68 c.number @size 72 20 @fontname "DejaVu" @fontweight "normal"
@fontslant "roman" @fontsize 12 @receive "(null)" @send "(null)" @presetname
"(null)" @min -1 @max 1 @minmax -1 1 @decimal 6 @bgcolor 0.75 0.75
0.75 1 @bdcolor 0.5 0.5 0.5 1 @textcolor 0 0 0 1;
#X obj 182 14 s \$0-b0;
#X text 341 181 Difference equation : y(n) = b0 * x(n) - a1 * y(n-1)
;
#X text 9 11 The One-Pole filter;
#X obj 272 47 s \$0-a1;
#X text 118 33 b0;
#X text 193 33 a1;
#X obj 12 144 fltr.onepole~, f 20;
#X msg 439 94 image 2 2 fltr.onepole.gif;
#X obj 605 204 fltr.response.phase onepole \$0;
#X msg 801 39 \; pd open fltr.onepole.gif /Users/Pierre/GitHub/Fltr
;
#X connect 1 0 23 0;
#X connect 3 0 4 0;
#X connect 4 0 22 2;
#X connect 5 0 6 0;
#X connect 6 0 22 1;
#X connect 8 0 22 0;
#X connect 9 0 10 0;
#X connect 10 0 12 0;
#X connect 12 0 5 0;
#X connect 12 0 16 0;
#X connect 13 0 14 0;
#X connect 14 0 15 0;
#X connect 15 0 3 0;
#X connect 15 0 19 0;
#X connect 22 0 7 0;
#X connect 23 0 0 0;
