#N struct square float x1 float y1 float x2 float y2 float x3 float
y3 float x4 float y4 float x5 float y5;
#N canvas 261 365 1007 375 12;
#X obj 421 181 pointer;
#X obj 209 65 t b b b;
#X msg 221 29 bang;
#X text 262 28 click here to re-initialize;
#N canvas 134 52 456 335 mydata 0;
#X scalar square 0 0 357 0 357 357 0 357 0 0 \;;
#X coords 0 0 1000 1000 200 200 2 0 0;
#X restore 650 134 pd mydata;
#X msg 421 118 \; pd-mydata clear;
#X msg 421 158 traverse pd-mydata \, bang;
#X obj 31 285 append square x1 y1 x2 y2 x3 y3 x4 y4 x5 y5;
#X obj 31 19 nbx 5 14 -1e+37 1e+37 0 0 empty empty empty 0 -8 0 10
-262144 -1 -1 105 256;
#X obj 161 20 nbx 5 14 -1e+37 1e+37 0 0 empty empty empty 0 -8 0 10
-262144 -1 -1 357 256;
#X obj 498 70 drawpolygon 0 1 x1 y1 x2 y2 x3 y3 x4 y4 x5 y5;
#X obj 499 15 struct square float x1 float y1 float x2 float y2 float
x3 float y3 float x4 float y4 float x5 float y5;
#X text 138 220 x \, y \, x+w \, y+w;
#X msg 31 245 \$1 \$2 \$3 \$2 \$3 \$4 \$1 \$4 \$1 \$2;
#X obj 93 177 +;
#X obj 124 177 +;
#X obj 31 214 pack f f f f;
#X obj 31 130 f;
#X obj 78 130 f;
#X obj 108 45 t b f;
#X obj 41 67 t b f;
#X obj 31 95 t f b;
#X obj 92 19 nbx 5 14 -1e+37 1e+37 0 0 empty empty empty 0 -8 0 10
-262144 -1 -1 141 256;
#X connect 0 0 7 10;
#X connect 1 1 6 0;
#X connect 1 2 5 0;
#X connect 2 0 1 0;
#X connect 6 0 0 0;
#X connect 8 0 21 0;
#X connect 9 0 19 0;
#X connect 13 0 7 0;
#X connect 14 0 16 2;
#X connect 15 0 16 3;
#X connect 16 0 13 0;
#X connect 17 0 16 0;
#X connect 17 0 14 0;
#X connect 18 0 16 1;
#X connect 18 0 15 0;
#X connect 19 0 20 0;
#X connect 19 1 15 1;
#X connect 19 1 14 1;
#X connect 20 0 21 0;
#X connect 20 1 18 0;
#X connect 21 0 17 0;
#X connect 21 1 1 0;
#X connect 22 0 20 0;
