#N canvas 281 102 747 523 10;
#X obj 29 100 inlet;
#X obj 180 100 inlet;
#X obj 29 194 t f f, f 17;
#X obj 29 328 * 1, f 6;
#X obj 29 304 sin;
#X obj 62 302 * -1;
#X obj 98 278 cos;
#X obj 29 253 t f f, f 12;
#X obj 29 353 /, f 12;
#X obj 98 302 * 1, f 8;
#X obj 29 377 atan;
#X obj 98 327 + 1;
#X obj 29 402 * -1;
#X obj 29 427 +, f 8;
#X obj 74 401 * 3.14159;
#X obj 74 377 < 0;
#X obj 29 452 outlet;
#X obj 128 452 outlet;
#X text 52 49 = -atan((-a1 * sin(ωτ)) / (1 + a1 * cos(ωτ)) + π
\, b0 < 0;
#X text 19 29 Θ(ω) = -atan((-a1 * sin(ωτ)) / (1 + a1 * cos(ωτ))
\, b0 > 0, f 61;
#X obj 29 170 fltr.loop.for 0 \$1 1;
#X obj 29 219 fltr.to.pi \$1;
#X text 29 77 b0;
#X text 79 77 b1;
#X text 129 77 b2;
#X text 179 77 a1;
#X text 229 77 a2;
#X obj 79 100 inlet;
#X obj 129 100 inlet;
#X obj 230 100 inlet;
#X obj 29 131 t b f, f 8;
#X obj 110 131 t b f, f 6;
#X connect 0 0 30 0;
#X connect 1 0 31 0;
#X connect 2 0 21 0;
#X connect 2 1 17 0;
#X connect 3 0 8 0;
#X connect 4 0 3 0;
#X connect 5 0 3 1;
#X connect 6 0 9 0;
#X connect 7 0 4 0;
#X connect 7 1 6 0;
#X connect 8 0 10 0;
#X connect 9 0 11 0;
#X connect 10 0 12 0;
#X connect 11 0 8 1;
#X connect 12 0 13 0;
#X connect 13 0 16 0;
#X connect 14 0 13 1;
#X connect 15 0 14 0;
#X connect 20 0 2 0;
#X connect 21 0 7 0;
#X connect 30 0 20 0;
#X connect 30 1 15 0;
#X connect 31 0 20 0;
#X connect 31 1 5 0;
#X connect 31 1 9 1;
#X coords 0 523 1 522 366 40 0;
