#N canvas 131 67 1076 712 10;
#X obj 651 9 inlet~;
#X obj 651 69 *~;
#X obj 688 69 *~;
#X obj 651 94 sqrt~;
#X obj 771 275 rmstodb~;
#X obj 461 352 metro 20;
#X obj 771 302 dbtopow~;
#X obj 651 44 rfft~;
#X obj 541 240 *~ 0;
#X obj 570 216 == 0;
#X obj 680 216 == 1;
#X obj 800 216 == 2;
#X obj 680 179 r \$0-scale-mode;
#X obj 651 275 rmstodb~;
#X obj 651 240 *~ 0;
#X obj 771 240 *~ 0;
#X obj 771 327 clip~ 0 0.01;
#X obj 771 352 *~ 100;
#X obj 651 327 clip~ 0 100;
#X obj 651 352 *~ 0.01;
#X obj 541 327 clip~ 0 0.125;
#X obj 541 352 *~ 8;
#X msg 839 594 bounds 0 1 \$1 0;
#X obj 709 505 r \$0-fft-size;
#X obj 783 7 r \$0-fft-size;
#X obj 709 530 * 0.5;
#X msg 709 594 resize \$1;
#X obj 651 118 /~ 2047;
#X obj 731 85 - 1;
#X obj 558 571 * 0.125;
#X msg 783 32 set \$1 2;
#X obj 126 141 s \$0-scale-mode;
#X obj 407 152 s \$0-onoff;
#X obj 461 303 r \$0-onoff;
#X msg 837 535 yticks 0.2 0.2 1;
#X msg 558 599 xticks \$1 \$1 1;
#X obj 837 498 loadbang;
#X text 397 101 State;
#X text 274 102 FFT Size;
#X text 126 102 Amplitude Scale;
#X obj 275 121 nbx 5 14 2 1e+37 0 0 empty empty empty 0 -8 0 10 -262144
-1 -1 2048 256;
#X msg 275 97 set \$1;
#N canvas 0 22 450 300 toPowerOf2 0;
#X obj 230 98 log;
#X obj 230 120 /;
#X obj 230 47 t f b;
#X obj 260 100 log;
#X obj 260 76 f 2;
#X obj 230 142 int;
#X obj 230 164 max 1;
#X obj 229 233 pow, f 5;
#X obj 229 189 t b f;
#X obj 229 211 f 2;
#X obj 230 23 inlet;
#X obj 229 255 outlet;
#X connect 0 0 1 0;
#X connect 1 0 5 0;
#X connect 2 0 0 0;
#X connect 2 1 4 0;
#X connect 3 0 1 1;
#X connect 4 0 3 0;
#X connect 5 0 6 0;
#X connect 6 0 8 0;
#X connect 7 0 11 0;
#X connect 8 0 9 0;
#X connect 8 1 7 1;
#X connect 9 0 7 0;
#X connect 10 0 2 0;
#X restore 275 65 pd toPowerOf2;
#X obj 221 30 r \$0-fft-size;
#X obj 464 62 loadbang;
#X msg 464 84 2048;
#X obj 465 109 s \$0-fft-size;
#X obj 275 139 s \$0-fft-size;
#X obj 407 128 tgl 15 0 empty empty empty 17 7 0 10 -262144 -1 -1 0
1;
#N canvas 0 22 450 300 toScale 0;
#X obj 116 162 sel 0 1 2;
#X obj 116 184 symbol Rms;
#X obj 133 204 symbol Decibel;
#X obj 151 224 symbol Power;
#X obj 64 14 sel Rms Decibel Power;
#X msg 116 246 set \$1;
#X obj 91 45 f 0;
#X obj 122 45 f 1;
#X obj 152 45 f 2;
#X obj 168 96 inlet;
#X obj 165 139 outlet;
#X obj 228 96 inlet;
#X obj 225 139 outlet;
#X obj 187 46 bang;
#X connect 0 0 1 0;
#X connect 0 1 2 0;
#X connect 0 2 3 0;
#X connect 1 0 5 0;
#X connect 2 0 5 0;
#X connect 3 0 5 0;
#X connect 4 0 6 0;
#X connect 4 1 7 0;
#X connect 4 2 8 0;
#X connect 4 3 13 0;
#X connect 5 0 12 0;
#X connect 6 0 10 0;
#X connect 7 0 10 0;
#X connect 8 0 10 0;
#X connect 9 0 0 0;
#X connect 11 0 4 0;
#X connect 13 0 10 0;
#X restore 181 119 pd toScale;
#X obj 126 118 hradio 15 1 0 3 empty empty empty 0 -8 0 10 -262144
-1 -1 2;
#X symbolatom 174 118 10 0 0 0 - - -, f 10;
#N canvas 0 22 450 278 (subpatch) 0;
#X array \$0-spectrum 2048 float 4;
#X coords 0 1.57079 2047 -1.57079 300 140 2 0 0;
#X restore 127 174 graph;
#X text 121 321 0;
#X text 197 313 π;
#X text 197 320 –;
#X text 272 313 π;
#X text 272 320 –;
#X text 272 329 4;
#X text 421 313 π;
#X text 421 320 –;
#X text 421 329 2;
#X text 197 329 8;
#X text 347 320 –;
#X text 347 329 8;
#X text 344 313 3π;
#X obj 783 58 switch~ 2048 2;
#X obj 873 7 r \$0-onoff;
#X text 140 344 Gain g / Normalized Frequency ω (rad/sample);
#X obj 651 459 tabwrite~ \$0-spectrum;
#X obj 709 664 send \$0-spectrum;
#X connect 0 0 7 0;
#X connect 1 0 3 0;
#X connect 2 0 3 0;
#X connect 3 0 27 0;
#X connect 4 0 6 0;
#X connect 5 0 69 0;
#X connect 6 0 16 0;
#X connect 7 0 1 0;
#X connect 7 0 1 1;
#X connect 7 1 2 0;
#X connect 7 1 2 1;
#X connect 8 0 20 0;
#X connect 9 0 8 1;
#X connect 10 0 14 1;
#X connect 11 0 15 1;
#X connect 12 0 11 0;
#X connect 12 0 10 0;
#X connect 12 0 9 0;
#X connect 13 0 18 0;
#X connect 14 0 13 0;
#X connect 15 0 4 0;
#X connect 16 0 17 0;
#X connect 17 0 69 0;
#X connect 18 0 19 0;
#X connect 19 0 69 0;
#X connect 20 0 21 0;
#X connect 21 0 69 0;
#X connect 22 0 70 0;
#X connect 23 0 25 0;
#X connect 23 0 29 0;
#X connect 24 0 30 0;
#X connect 24 0 28 0;
#X connect 25 0 22 0;
#X connect 25 0 26 0;
#X connect 26 0 70 0;
#X connect 27 0 8 0;
#X connect 27 0 14 0;
#X connect 27 0 15 0;
#X connect 28 0 27 1;
#X connect 29 0 35 0;
#X connect 30 0 66 0;
#X connect 33 0 5 0;
#X connect 34 0 70 0;
#X connect 35 0 70 0;
#X connect 36 0 34 0;
#X connect 40 0 42 0;
#X connect 40 0 47 0;
#X connect 41 0 40 0;
#X connect 42 0 41 0;
#X connect 43 0 41 0;
#X connect 44 0 45 0;
#X connect 45 0 46 0;
#X connect 48 0 32 0;
#X connect 49 0 50 0;
#X connect 49 1 51 0;
#X connect 50 0 49 0;
#X connect 50 0 31 0;
#X connect 51 0 49 1;
#X connect 67 0 66 0;
#X coords 0 -1 1 1 346 260 2 100 100;
