#N canvas 277 414 450 300 10;
#X obj 99 76 r pd;
#X obj 99 101 route dsp;
#X obj 144 166 tgl 15 0 empty empty empty 17 7 0 10 -33289 -33289 -262144
1 1;
#X obj 144 186 sel 0 1;
#X msg 344 185 color 0 0 0;
#X msg 224 185 color 72 72 0;
#X obj 212 78 bang~;
#X obj 212 100 f 1;
#X obj 99 123 sel bang;
#X connect 0 0 1 0;
#X connect 1 0 8 0;
#X connect 2 0 3 0;
#X connect 3 0 4 0;
#X connect 3 1 5 0;
#X connect 4 0 2 0;
#X connect 5 0 2 0;
#X connect 6 0 7 0;
#X connect 7 0 2 0;
#X connect 8 1 2 0;
