#N canvas 131 67 1076 712 10;
#X obj 241 9 inlet~;
#X obj 241 69 *~;
#X obj 278 69 *~;
#X obj 241 94 sqrt~;
#X obj 361 275 rmstodb~;
#X obj 51 352 metro 20;
#X obj 361 302 dbtopow~;
#X obj 241 459 tabwrite~ \$0-gain;
#X obj 241 44 rfft~;
#X obj 131 240 *~ 0;
#X obj 160 216 == 0;
#X obj 270 216 == 1;
#X obj 390 216 == 2;
#X obj 270 179 r \$0-scale-mode;
#X obj 241 275 rmstodb~;
#X obj 241 240 *~ 0;
#X obj 361 240 *~ 0;
#X obj 179 664 send \$0-gain;
#X obj 361 327 clip~ 0 0.01;
#X obj 361 352 *~ 100;
#X obj 241 327 clip~ 0 100;
#X obj 241 352 *~ 0.01;
#X obj 131 327 clip~ 0 0.125;
#X obj 131 352 *~ 8;
#X msg 309 594 bounds 0 1 \$1 0;
#X obj 179 505 r \$0-fft-size;
#X obj 373 7 r \$0-fft-size;
#X obj 179 530 * 0.5;
#X msg 179 594 resize \$1;
#X obj 241 118 /~ 2047;
#X obj 321 85 - 1;
#X obj 28 571 * 0.125;
#X obj 373 58 block~ 2048 2;
#X msg 373 32 set \$1 2;
#X obj 605 553 s \$0-scale-mode;
#X obj 852 541 s \$0-onoff;
#X obj 51 303 r \$0-onoff;
#X msg 457 595 yticks 0.2 0.2 1;
#X msg 28 599 xticks \$1 \$1 1;
#X obj 510 562 loadbang;
#N canvas 0 23 450 278 (subpatch) 0;
#X array \$0-gain 1024 float 2;
#X coords 0 1 1024 0 268 140 1 0 0;
#X restore 604 255 graph;
#X text 601 399 0;
#X text 839 399 SR/2;
#X text 721 399 SR/4;
#X text 842 206 State;
#X text 752 206 FFT Size;
#X text 604 206 Amplitude Scale;
#X obj 777 98 nbx 5 14 2 1e+37 0 0 empty empty empty 0 -8 0 10 -262144
-1 -1 2048 256;
#X msg 777 74 set \$1;
#X obj 789 184 nbx 5 14 -1e+37 1e+37 0 0 empty empty empty 0 -8 0 10
-262144 -1 -1 0 256;
#N canvas 0 22 450 300 toPowerOf2 0;
#X obj 230 98 log;
#X obj 230 120 /;
#X obj 230 47 t f b;
#X obj 260 100 log;
#X obj 260 76 f 2;
#X obj 230 142 int;
#X obj 230 164 max 1;
#X obj 229 233 pow, f 5;
#X obj 229 189 t b f;
#X obj 229 211 f 2;
#X obj 230 23 inlet;
#X obj 229 255 outlet;
#X connect 0 0 1 0;
#X connect 1 0 5 0;
#X connect 2 0 0 0;
#X connect 2 1 4 0;
#X connect 3 0 1 1;
#X connect 4 0 3 0;
#X connect 5 0 6 0;
#X connect 6 0 8 0;
#X connect 7 0 11 0;
#X connect 8 0 9 0;
#X connect 8 1 7 1;
#X connect 9 0 7 0;
#X connect 10 0 2 0;
#X restore 777 42 pd toPowerOf2;
#X obj 673 37 r \$0-fft-size;
#X obj 916 69 loadbang;
#X msg 916 91 2048;
#X obj 917 116 s \$0-fft-size;
#X obj 777 116 s \$0-fft-size;
#X obj 852 233 tgl 15 0 empty empty empty 17 7 0 10 -262144 -1 -1 0
1;
#X obj 526 245 hradio 15 1 0 3 empty empty empty 0 -8 0 10 -262144
-1 -1 2;
#X obj 526 305 sel 0 1 2;
#X symbolatom 526 410 10 0 0 0 - - -, f 10;
#X obj 526 327 symbol Rms;
#X obj 543 347 symbol Decibel;
#X obj 561 367 symbol Power;
#X obj 474 157 sel Rms Decibel Power;
#X msg 526 389 set \$1;
#X obj 501 188 f 0;
#X obj 532 188 f 1;
#X obj 562 188 f 2;
#X obj 593 179 bang;
#X obj 563 278 print;
#N canvas 0 22 450 300 toScale 0;
#X obj 116 162 sel 0 1 2;
#X obj 116 184 symbol Rms;
#X obj 133 204 symbol Decibel;
#X obj 151 224 symbol Power;
#X obj 64 14 sel Rms Decibel Power;
#X msg 116 246 set \$1;
#X obj 91 45 f 0;
#X obj 122 45 f 1;
#X obj 152 45 f 2;
#X obj 168 96 inlet;
#X obj 165 139 outlet;
#X obj 228 96 inlet;
#X obj 225 139 outlet;
#X obj 187 46 bang;
#X connect 0 0 1 0;
#X connect 0 1 2 0;
#X connect 0 2 3 0;
#X connect 1 0 5 0;
#X connect 2 0 5 0;
#X connect 3 0 5 0;
#X connect 4 0 6 0;
#X connect 4 1 7 0;
#X connect 4 2 8 0;
#X connect 4 3 13 0;
#X connect 5 0 12 0;
#X connect 6 0 10 0;
#X connect 7 0 10 0;
#X connect 8 0 10 0;
#X connect 9 0 0 0;
#X connect 11 0 4 0;
#X connect 13 0 10 0;
#X restore 551 106 pd toScale;
#X obj 496 105 hradio 15 1 0 3 empty empty empty 0 -8 0 10 -262144
-1 -1 2;
#X symbolatom 622 107 10 0 0 0 - - -, f 10;
#X connect 0 0 8 0;
#X connect 1 0 3 0;
#X connect 2 0 3 0;
#X connect 3 0 29 0;
#X connect 4 0 6 0;
#X connect 5 0 7 0;
#X connect 6 0 18 0;
#X connect 8 0 1 0;
#X connect 8 0 1 1;
#X connect 8 1 2 0;
#X connect 8 1 2 1;
#X connect 9 0 22 0;
#X connect 10 0 9 1;
#X connect 11 0 15 1;
#X connect 12 0 16 1;
#X connect 13 0 12 0;
#X connect 13 0 11 0;
#X connect 13 0 10 0;
#X connect 14 0 20 0;
#X connect 15 0 14 0;
#X connect 16 0 4 0;
#X connect 18 0 19 0;
#X connect 19 0 7 0;
#X connect 20 0 21 0;
#X connect 21 0 7 0;
#X connect 22 0 23 0;
#X connect 23 0 7 0;
#X connect 24 0 17 0;
#X connect 25 0 27 0;
#X connect 25 0 31 0;
#X connect 26 0 33 0;
#X connect 26 0 30 0;
#X connect 27 0 24 0;
#X connect 27 0 28 0;
#X connect 28 0 17 0;
#X connect 29 0 9 0;
#X connect 29 0 15 0;
#X connect 29 0 16 0;
#X connect 30 0 29 1;
#X connect 31 0 38 0;
#X connect 33 0 32 0;
#X connect 36 0 5 0;
#X connect 37 0 17 0;
#X connect 38 0 17 0;
#X connect 39 0 37 0;
#X connect 47 0 50 0;
#X connect 47 0 55 0;
#X connect 48 0 47 0;
#X connect 50 0 48 0;
#X connect 51 0 48 0;
#X connect 52 0 53 0;
#X connect 53 0 54 0;
#X connect 56 0 35 0;
#X connect 57 0 34 0;
#X connect 57 0 58 0;
#X connect 58 0 60 0;
#X connect 58 1 61 0;
#X connect 58 2 62 0;
#X connect 59 0 63 0;
#X connect 60 0 64 0;
#X connect 61 0 64 0;
#X connect 62 0 64 0;
#X connect 63 0 65 0;
#X connect 63 1 66 0;
#X connect 63 2 67 0;
#X connect 63 3 68 0;
#X connect 64 0 59 0;
#X connect 65 0 57 0;
#X connect 66 0 57 0;
#X connect 67 0 57 0;
#X connect 68 0 65 0;
#X connect 68 0 57 0;
#X connect 70 0 71 0;
#X connect 70 1 72 0;
#X connect 71 0 70 0;
#X connect 72 0 70 1;
#X coords 0 -1 1 1 346 260 2 600 200;
