#N canvas 332 87 1076 712 12;
#X obj 241 9 inlet~;
#X obj 241 69 *~;
#X obj 278 69 *~;
#X obj 241 94 sqrt~;
#X obj 361 275 rmstodb~;
#X obj 51 352 metro 20;
#X obj 361 302 dbtopow~;
#X obj 601 201 cnv 15 274 218 empty empty empty 20 12 0 14 -195568
-66577 0;
#X obj 241 459 tabwrite~ \$0-gain;
#X obj 241 44 rfft~;
#X obj 131 240 *~ 0;
#X obj 160 216 == 0;
#X obj 270 216 == 1;
#X obj 390 216 == 2;
#X obj 270 179 r \$0-scale-mode;
#X obj 241 275 rmstodb~;
#X obj 241 240 *~ 0;
#X obj 361 240 *~ 0;
#X obj 179 664 send \$0-gain;
#X obj 361 327 clip~ 0 0.01;
#X obj 361 352 *~ 100;
#X obj 241 327 clip~ 0 100;
#X obj 241 352 *~ 0.01;
#X obj 131 327 clip~ 0 0.125;
#X obj 131 352 *~ 8;
#X msg 309 594 bounds 0 1 \$1 0;
#X obj 179 505 r \$0-fft-size;
#X obj 373 7 r \$0-fft-size;
#X obj 179 530 * 0.5;
#X msg 179 594 resize \$1;
#X obj 241 118 /~ 2047;
#X obj 321 85 - 1;
#X obj 28 571 * 0.125;
#X obj 373 58 block~ 2048 2;
#X msg 373 32 set \$1 2;
#X obj 605 231 c.menu @size 141 20 @fontname "DejaVu" @fontweight "normal"
@fontslant "roman" @fontsize 12 @receive "(null)" @send "(null)" @presetname
"(null)" @hover 0 @items "Rms" "Decibel" "Power" @states 0 0 0 @bgcolor
0.750942 0.750942 0.750942 1 @bdcolor 0 0 0 1 @textcolor 0.0316186
0.00395233 0.00790465 1;
#X obj 753 231 c.menu @size 91 20 @fontname "DejaVu" @fontweight "normal"
@fontslant "roman" @fontsize 12 @receive "(null)" @send "(null)" @presetname
"(null)" @hover 0 @items "1024" "2048" "4096" "8192" @states 0 0 0
0 @bgcolor 0.75 0.75 0.75 1 @bdcolor 0.0316186 0.00790465 0.0316186
1 @textcolor 0 0 0 1;
#X text 752 206 FFT Size :;
#X obj 605 553 s \$0-scale-mode;
#X obj 605 137 loadbang;
#X obj 753 544 pow, f 5;
#X obj 753 519 f 2;
#X obj 753 494 t b f;
#X obj 753 571 s \$0-fft-size;
#X obj 605 162 f 1;
#X obj 753 468 + 10;
#X obj 851 231 c.toggle @size 20 20 @fontname "Helvetica" @fontweight
"normal" @fontslant "roman" @fontsize 11 @receive "(null)" @send "(null)"
@presetname "(null)" @bgcolor 0.75 0.75 0.75 1 @bdcolor 0.0316186 0.00790465
0.0276663 1 @crcolor 0.0434756 0.011857 0.0395233 1;
#X text 604 206 Amplitude Scale :;
#X obj 852 541 s \$0-onoff;
#X obj 51 303 r \$0-onoff;
#X msg 457 595 yticks 0.2 0.2 1;
#X msg 28 599 xticks \$1 \$1 1;
#X obj 510 562 loadbang;
#N canvas 0 23 450 278 (subpatch) 0;
#X array \$0-gain 1024 float 2;
#X coords 0 1 1024 0 268 140 1 0 0;
#X restore 604 255 graph;
#X text 601 399 0;
#X text 839 399 SR/2;
#X text 721 399 SR/4;
#X connect 0 0 9 0;
#X connect 1 0 3 0;
#X connect 2 0 3 0;
#X connect 3 0 30 0;
#X connect 4 0 6 0;
#X connect 5 0 8 0;
#X connect 6 0 19 0;
#X connect 9 0 1 0;
#X connect 9 0 1 1;
#X connect 9 1 2 0;
#X connect 9 1 2 1;
#X connect 10 0 23 0;
#X connect 11 0 10 1;
#X connect 12 0 16 1;
#X connect 13 0 17 1;
#X connect 14 0 13 0;
#X connect 14 0 12 0;
#X connect 14 0 11 0;
#X connect 15 0 21 0;
#X connect 16 0 15 0;
#X connect 17 0 4 0;
#X connect 19 0 20 0;
#X connect 20 0 8 0;
#X connect 21 0 22 0;
#X connect 22 0 8 0;
#X connect 23 0 24 0;
#X connect 24 0 8 0;
#X connect 25 0 18 0;
#X connect 26 0 28 0;
#X connect 26 0 32 0;
#X connect 27 0 34 0;
#X connect 27 0 31 0;
#X connect 28 0 25 0;
#X connect 28 0 29 0;
#X connect 29 0 18 0;
#X connect 30 0 10 0;
#X connect 30 0 16 0;
#X connect 30 0 17 0;
#X connect 31 0 30 1;
#X connect 32 0 51 0;
#X connect 34 0 33 0;
#X connect 35 0 38 0;
#X connect 36 0 45 0;
#X connect 39 0 44 0;
#X connect 40 0 43 0;
#X connect 41 0 40 0;
#X connect 42 0 41 0;
#X connect 42 1 40 1;
#X connect 44 0 35 0;
#X connect 44 0 36 0;
#X connect 44 0 46 0;
#X connect 45 0 42 0;
#X connect 46 0 48 0;
#X connect 49 0 5 0;
#X connect 50 0 18 0;
#X connect 51 0 18 0;
#X connect 52 0 50 0;
#X coords 0 -1 1 1 276 220 2 600 200;
