#N canvas 0 22 450 300 12;
#X obj 97 50 inlet~;
#X obj 97 170 outlet~;
#X obj 222 50 inlet~;
#X obj 222 75 *~ -1;
#X obj 97 145 rzero~, f 16;
#X obj 158 50 inlet~;
#X obj 97 105 *~, f 8;
#X connect 0 0 6 0;
#X connect 2 0 3 0;
#X connect 3 0 4 1;
#X connect 4 0 1 0;
#X connect 5 0 6 1;
#X connect 6 0 4 0;
