#N canvas 548 28 878 812 12;
#X obj 483 235 c.blackboard @size 314 218 @fontname "Helvetica" @fontweight
"normal" @fontslant "roman" @fontsize 11 @receive "(null)" @send "(null)"
@chalkmode 1 @bgcolor 0.75 0.75 0.75 1 @bdcolor 0.5 0.5 0.5 1;
#X obj 539 340 loadbang;
#N canvas 277 82 920 688 ftr.representation 0;
#X obj 399 70 inlet;
#X obj 483 70 inlet;
#X obj 399 241 * 3.14159;
#X obj 399 491 sqrt;
#X obj 399 190 t f f, f 18;
#X obj 399 627 tabwrite \$0-amp, f 18;
#X obj 399 131 t b f b, f 12;
#X obj 422 99 nbx 5 14 -1e+37 1e+37 0 0 empty empty empty 0 -8 0 10
-262144 -1 -1 0 256;
#X obj 399 216 / 2048;
#X obj 509 131 t b f b, f 12;
#X obj 512 99 nbx 5 14 -1e+37 1e+37 0 0 empty empty empty 0 -8 0 10
-262144 -1 -1 0 256;
#X obj 101 101 cnv 15 244 198 empty empty empty 20 12 0 14 -195568
-66577 0;
#N canvas 0 23 450 278 (subpatch) 0;
#X array \$0-amp 2048 float 4;
#X coords 0 40 2047 0 200 140 2 0 0;
#X restore 141 124 graph;
#X obj 101 101 cnv 15 244 20 empty empty empty 20 12 0 14 -195568 -66577
0;
#X text 108 246 0;
#X msg 104 446 yticks 0 1 1;
#X msg 104 416 xticks 0 512 1;
#X obj 118 501 s \$0-amp;
#X obj 422 38 r \$0-b0;
#X text 135 277 0;
#X text 224 277 SR/4;
#X text 308 277 SR/2;
#X text 113 271 /;
#X text 118 277 f;
#X text 144 101 Amplitude Response G(w);
#X text 108 266 g;
#X obj 399 161 loop.for 0 2048 1;
#X obj 603 70 inlet;
#X obj 629 131 t b f b, f 12;
#X obj 632 99 nbx 5 14 -1e+37 1e+37 0 0 empty empty empty 0 -8 0 10
-262144 -1 -1 0 256;
#X obj 399 316 cos;
#X obj 466 316 sin;
#X obj 399 266 t f f f f, f 13;
#X obj 432 291 * 2;
#X obj 500 291 * 2;
#X obj 432 316 cos;
#X obj 501 316 sin;
#X obj 399 341 *;
#X obj 432 341 *;
#X obj 399 366 +, f 4;
#X obj 466 341 *;
#X obj 501 341 *;
#X obj 466 366 * -1;
#X obj 466 391 -;
#X obj 399 416 t f f;
#X obj 399 441 *, f 5;
#X obj 466 416 t f f;
#X obj 466 441 *, f 5;
#X obj 399 466 +, f 8;
#X obj 399 391 + 1, f 4;
#X obj 399 516 t b f;
#X obj 399 541 f 1;
#X obj 399 566 /, f 5;
#X obj 399 597 clip 0 40;
#X text 100 183 20;
#X text 100 123 40;
#X obj 529 44 r \$0-a1;
#X obj 649 44 r \$0-a2;
#X connect 0 0 6 0;
#X connect 1 0 9 0;
#X connect 2 0 32 0;
#X connect 3 0 50 0;
#X connect 4 0 8 0;
#X connect 4 1 5 1;
#X connect 6 0 26 0;
#X connect 6 1 51 1;
#X connect 7 0 6 0;
#X connect 8 0 2 0;
#X connect 9 0 26 0;
#X connect 9 1 37 1;
#X connect 9 1 40 1;
#X connect 10 0 9 0;
#X connect 15 0 17 0;
#X connect 16 0 17 0;
#X connect 18 0 6 0;
#X connect 26 0 4 0;
#X connect 27 0 28 0;
#X connect 28 0 26 0;
#X connect 28 1 38 1;
#X connect 28 1 41 1;
#X connect 29 0 28 0;
#X connect 30 0 37 0;
#X connect 31 0 40 0;
#X connect 32 0 30 0;
#X connect 32 1 33 0;
#X connect 32 2 31 0;
#X connect 32 3 34 0;
#X connect 33 0 35 0;
#X connect 34 0 36 0;
#X connect 35 0 38 0;
#X connect 36 0 41 0;
#X connect 37 0 39 0;
#X connect 38 0 39 1;
#X connect 39 0 49 0;
#X connect 40 0 42 0;
#X connect 41 0 43 1;
#X connect 42 0 43 0;
#X connect 43 0 46 0;
#X connect 44 0 45 0;
#X connect 44 1 45 1;
#X connect 45 0 48 0;
#X connect 46 0 47 0;
#X connect 46 1 47 1;
#X connect 47 0 48 1;
#X connect 48 0 3 0;
#X connect 49 0 44 0;
#X connect 50 0 51 0;
#X connect 50 1 52 1;
#X connect 51 0 52 0;
#X connect 52 0 53 0;
#X connect 53 0 5 0;
#X connect 56 0 9 0;
#X connect 57 0 28 0;
#X coords 0 -1 1 1 246 200 2 100 100;
#X restore 302 581 pd ftr.representation;
#X obj 170 458 pack f 20;
#X obj 170 483 line~;
#X obj 91 458 pack f 20;
#X obj 91 483 line~;
#X obj 12 406 noise~;
#N canvas 629 23 799 581 ftr.representation 0;
#X obj 399 547 tabwrite \$0-phase;
#X obj 115 495 s \$0-phase;
#X msg 104 446 yticks 0 1 1;
#X msg 104 416 xticks 0 512 1;
#X obj 101 101 cnv 15 244 198 empty empty empty 20 12 0 14 -195568
-66577 0;
#N canvas 0 22 450 278 (subpatch) 0;
#X array \$0-phase 2048 float 0;
#X coords 0 1.57079 2047 -1.57079 200 140 2 0 0;
#X restore 141 124 graph;
#X text 108 184 0;
#X text 135 277 0;
#X text 224 277 SR/4;
#X text 308 277 SR/2;
#X obj 101 101 cnv 15 244 20 empty empty empty 20 12 0 14 -195568 -66577
0;
#X text 108 266 θ;
#X text 113 271 /;
#X text 118 277 f;
#X text 108 246 2;
#X text 100 236 -–;
#X text 108 226 π;
#X text 108 136 2;
#X text 108 116 π;
#X text 108 126 –;
#X text 144 100 Phase Response Θ(w);
#X obj 399 70 inlet;
#X obj 483 70 inlet;
#X obj 399 241 * 3.14159;
#X obj 399 190 t f f, f 17;
#X obj 399 131 t b f b, f 12;
#X obj 422 99 nbx 5 14 -1e+37 1e+37 0 0 empty empty empty 0 -8 0 10
-262144 -1 -1 0 256;
#X obj 399 216 / 2048;
#X obj 509 131 t b f b, f 12;
#X obj 512 99 nbx 5 14 -1e+37 1e+37 0 0 empty empty empty 0 -8 0 10
-262144 -1 -1 0 256;
#X obj 422 38 r \$0-b0;
#X obj 399 161 loop.for 0 2048 1;
#X obj 603 70 inlet;
#X obj 629 131 t b f b, f 12;
#X obj 632 99 nbx 5 14 -1e+37 1e+37 0 0 empty empty empty 0 -8 0 10
-262144 -1 -1 0 256;
#X obj 399 316 cos;
#X obj 466 316 sin;
#X obj 399 266 t f f f f, f 13;
#X obj 432 291 * 2;
#X obj 500 291 * 2;
#X obj 432 316 cos;
#X obj 501 316 sin;
#X obj 399 341 *;
#X obj 432 341 *;
#X obj 399 366 +, f 4;
#X obj 466 341 *;
#X obj 501 341 *;
#X obj 466 366 * -1;
#X obj 466 391 -;
#X obj 399 416 t b f;
#X obj 399 441 /, f 5;
#X obj 399 466 atan;
#X obj 399 521 clip -3.14159 3.14159;
#X obj 529 44 r \$0-a1;
#X obj 649 44 r \$0-a2;
#X obj 399 391 + 1, f 6;
#X obj 399 491 * -1;
#X connect 2 0 1 0;
#X connect 3 0 1 0;
#X connect 21 0 25 0;
#X connect 22 0 28 0;
#X connect 23 0 37 0;
#X connect 24 0 27 0;
#X connect 24 1 0 1;
#X connect 25 0 31 0;
#X connect 26 0 25 0;
#X connect 27 0 23 0;
#X connect 28 0 31 0;
#X connect 28 1 42 1;
#X connect 28 1 45 1;
#X connect 29 0 28 0;
#X connect 30 0 25 0;
#X connect 31 0 24 0;
#X connect 32 0 33 0;
#X connect 33 0 31 0;
#X connect 33 1 43 1;
#X connect 33 1 46 1;
#X connect 34 0 33 0;
#X connect 35 0 42 0;
#X connect 36 0 45 0;
#X connect 37 0 35 0;
#X connect 37 1 38 0;
#X connect 37 2 36 0;
#X connect 37 3 39 0;
#X connect 38 0 40 0;
#X connect 39 0 41 0;
#X connect 40 0 43 0;
#X connect 41 0 46 0;
#X connect 42 0 44 0;
#X connect 43 0 44 1;
#X connect 44 0 55 0;
#X connect 45 0 47 0;
#X connect 46 0 48 1;
#X connect 47 0 48 0;
#X connect 48 0 50 0;
#X connect 49 0 50 0;
#X connect 49 1 50 1;
#X connect 50 0 51 0;
#X connect 51 0 56 0;
#X connect 52 0 0 0;
#X connect 53 0 28 0;
#X connect 54 0 33 0;
#X connect 55 0 49 0;
#X connect 56 0 52 0;
#X coords 0 -1 1 1 246 200 2 100 100;
#X restore 562 581 pd ftr.representation;
#X obj 320 502 c.dsp~ @size 49 49 @fontname "Helvetica" @fontweight
"normal" @fontslant "roman" @fontsize 11 @receive "(null)" @send "(null)"
@bgcolor 0.75 0.75 0.75 1 @bdcolor 0.5 0.5 0.5 1 @logocolor 0 0.6 0
0.8;
#X obj 91 430 c.number @size 72 20 @fontname "DejaVu" @fontweight "normal"
@fontslant "roman" @fontsize 12 @receive "(null)" @send "(null)" @presetname
"(null)" @min -1 @max 1 @minmax -1 1 @decimal 6 @bgcolor 0.75 0.75
0.75 1 @bdcolor 0.5 0.5 0.5 1 @textcolor 0 0 0 1;
#X obj 249 458 pack f 20;
#X obj 249 483 line~;
#X text 301 557 Difference equation : y(n) = b0 * x(n) + b1 * x(n-1)
+ b2 * x(n-2), f 66;
#X obj 249 288 t f f;
#X obj 249 313 *, f 5;
#X obj 171 268 * -2;
#X obj 170 317 *, f 5;
#X obj 170 294 t b f;
#X obj 369 265 cos;
#X obj 249 429 c.number @size 72 20 @fontname "DejaVu" @fontweight
"normal" @fontslant "roman" @fontsize 12 @receive "(null)" @send "(null)"
@presetname "(null)" @min "(null)" @max "(null)" @minmax "(null)" "(null)"
@decimal 6 @bgcolor 0.75 0.75 0.75 1 @bdcolor 0.5 0.5 0.5 1 @textcolor
0 0 0 1;
#X obj 170 430 c.number @size 72 20 @fontname "DejaVu" @fontweight
"normal" @fontslant "roman" @fontsize 12 @receive "(null)" @send "(null)"
@presetname "(null)" @min "(null)" @max "(null)" @minmax "(null)" "(null)"
@decimal 6 @bgcolor 0.75 0.75 0.75 1 @bdcolor 0.5 0.5 0.5 1 @textcolor
0 0 0 1;
#X obj 99 430 s \$0-b0;
#X obj 93 428 loadbang;
#X obj 369 240 c.number @size 72 20 @fontname "DejaVu" @fontweight
"normal" @fontslant "roman" @fontsize 12 @receive "(null)" @send "(null)"
@presetname "(null)" @min "(null)" @max "(null)" @minmax "(null)" "(null)"
@decimal 6 @bgcolor 0.75 0.75 0.75 1 @bdcolor 0.5 0.5 0.5 1 @textcolor
0 0 0 1;
#X obj 171 240 c.number @size 72 20 @fontname "DejaVu" @fontweight
"normal" @fontslant "roman" @fontsize 12 @receive "(null)" @send "(null)"
@presetname "(null)" @min "(null)" @max 0.999 @minmax "(null)" 0.999
@decimal 6 @bgcolor 0.75 0.75 0.75 1 @bdcolor 0.5 0.5 0.5 1 @textcolor
0 0 0 1;
#X text 118 409 b0;
#X text 200 219 r;
#X text 402 216 θ;
#X text 384 93 Use Shift_L or Alt_L to lock the angle or the radius
, f 11;
#X text 384 23 Click and drag to move the point, f 11;
#X text 306 299 b1 = -2rcos(θ)/b0;
#X obj 12 514 ftr.twopole~, f 30;
#X msg 547 371 image 2 2 ftr.twopole.gif;
#X text 9 3 The Two-Pole filter;
#X text 306 319 b2 = r^2/b0;
#X obj 170 389 /;
#X obj 170 340 r \$0-b0;
#X obj 170 365 t b f;
#X obj 249 389 /;
#X obj 249 365 t b f;
#X obj 249 340 r \$0-b0;
#X obj 101 430 f 0.98;
#X obj 12 431 *~ 0.3;
#X obj 171 11 ftr.zmap;
#X text 196 409 a1;
#X text 276 409 a2;
#X obj 183 429 s \$0-a1;
#X obj 260 429 s \$0-a2;
#X obj 12 561 ftr.spectrogram~;
#X connect 1 0 33 0;
#X connect 3 0 4 0;
#X connect 4 0 32 2;
#X connect 5 0 6 0;
#X connect 6 0 32 1;
#X connect 7 0 43 0;
#X connect 10 0 5 0;
#X connect 10 0 22 0;
#X connect 11 0 12 0;
#X connect 12 0 32 3;
#X connect 14 0 15 0;
#X connect 14 1 15 1;
#X connect 15 0 39 0;
#X connect 16 0 17 0;
#X connect 17 0 36 0;
#X connect 18 0 17 0;
#X connect 18 1 17 1;
#X connect 19 0 18 0;
#X connect 20 0 11 0;
#X connect 20 0 48 0;
#X connect 21 0 3 0;
#X connect 21 0 47 0;
#X connect 23 0 42 0;
#X connect 24 0 19 0;
#X connect 25 0 16 0;
#X connect 25 0 14 0;
#X connect 32 0 49 0;
#X connect 33 0 0 0;
#X connect 36 0 21 0;
#X connect 37 0 38 0;
#X connect 38 0 36 0;
#X connect 38 1 36 1;
#X connect 39 0 20 0;
#X connect 40 0 39 0;
#X connect 40 1 39 1;
#X connect 41 0 40 0;
#X connect 42 0 10 0;
#X connect 43 0 32 0;
#X connect 44 0 25 0;
#X connect 44 1 24 0;
