#N canvas 437 63 450 300 12;
#X obj 97 50 inlet~;
#X obj 97 170 outlet~;
#X obj 222 50 inlet~;
#X obj 222 75 *~ -1;
#X obj 158 50 inlet~;
#X obj 97 105 *~, f 8;
#X obj 97 145 rpole~, f 16;
#X connect 0 0 5 0;
#X connect 2 0 3 0;
#X connect 3 0 6 1;
#X connect 4 0 5 1;
#X connect 5 0 6 0;
#X connect 6 0 1 0;
