#N canvas 403 271 450 300 12;
#X obj 94 177 f \$1, f 7;
#X obj 147 149 f \$1;
#X obj 94 98 f \$2;
#X obj 94 149 until;
#X obj 164 177 + \$3;
#X obj 94 123 - \$1;
#X obj 94 45 inlet;
#X obj 94 70 t b b, f 7;
#X obj 94 202 outlet;
#X connect 0 0 4 0;
#X connect 0 0 8 0;
#X connect 1 0 0 1;
#X connect 2 0 5 0;
#X connect 3 0 0 0;
#X connect 4 0 0 1;
#X connect 5 0 3 0;
#X connect 6 0 7 0;
#X connect 7 0 2 0;
#X connect 7 1 1 0;
