#N canvas 407 223 747 523 10;
#X obj 29 100 inlet;
#X obj 180 100 inlet;
#X obj 29 194 t f f, f 17;
#X obj 29 452 outlet;
#X obj 128 452 outlet;
#X text 29 77 b0;
#X text 79 77 b1;
#X text 129 77 b2;
#X text 179 77 a1;
#X text 229 77 a2;
#X obj 79 100 inlet;
#X obj 129 100 inlet;
#X obj 230 100 inlet;
#X obj 29 131 t b f, f 8;
#X obj 110 131 t b f, f 6;
#X obj 29 264 * 1, f 4;
#X obj 62 371 *, f 5;
#X obj 62 346 t f f;
#X obj 29 393 + 0, f 6;
#X obj 29 244 cos;
#X obj 29 170 fltr.loop.for 0 \$1 1;
#X obj 29 219 fltr.to.pi \$1;
#X obj 29 413 sqrt, f 5;
#X obj 29 284 * 1, f 4;
#X obj 29 323 + 1, f 6;
#X obj 62 302 *, f 5;
#X obj 62 277 t f f;
#X obj 29 433 clip 0 2;
#X obj 29 303 * 2;
#X text 19 29 G(ω) = √(b0^2 + b1^2 + 2 * b0 * b1 * cos(ωτ)),
f 61;
#X connect 0 0 13 0;
#X connect 2 0 21 0;
#X connect 2 1 4 0;
#X connect 10 0 14 0;
#X connect 13 0 20 0;
#X connect 13 1 15 1;
#X connect 13 1 26 0;
#X connect 14 0 20 0;
#X connect 14 1 17 0;
#X connect 14 1 23 1;
#X connect 15 0 23 0;
#X connect 16 0 18 1;
#X connect 17 0 16 0;
#X connect 17 1 16 1;
#X connect 18 0 22 0;
#X connect 19 0 15 0;
#X connect 20 0 2 0;
#X connect 21 0 19 0;
#X connect 22 0 27 0;
#X connect 23 0 28 0;
#X connect 24 0 18 0;
#X connect 25 0 24 1;
#X connect 26 0 25 0;
#X connect 26 1 25 1;
#X connect 27 0 3 0;
#X connect 28 0 24 0;
#X coords 0 523 1 522 366 40 0;
