#N canvas 281 102 747 523 10;
#X obj 29 100 inlet;
#X obj 180 100 inlet;
#X obj 29 194 t f f, f 17;
#X obj 29 304 * 1, f 6;
#X obj 29 280 sin;
#X obj 62 278 * -1;
#X obj 98 278 cos;
#X obj 29 253 t f f, f 12;
#X obj 29 353 /, f 12;
#X obj 98 302 * 1, f 8;
#X obj 29 427 atan;
#X obj 98 327 + 1;
#X obj 29 452 outlet;
#X obj 128 452 outlet;
#X obj 29 170 fltr.loop.for 0 \$1 1;
#X obj 29 219 fltr.to.pi \$1;
#X text 29 77 b0;
#X text 79 77 b1;
#X text 129 77 b2;
#X text 179 77 a1;
#X text 229 77 a2;
#X obj 79 100 inlet;
#X obj 129 100 inlet;
#X obj 230 100 inlet;
#X obj 29 131 t b f, f 8;
#X obj 110 131 t b f, f 6;
#X text 19 29 Θ(ω) = atan((-b1 * sin(ωτ)) / (b0 + b1 * cos(ωτ))
, f 61;
#X connect 0 0 24 0;
#X connect 2 0 15 0;
#X connect 2 1 13 0;
#X connect 3 0 8 0;
#X connect 4 0 3 0;
#X connect 5 0 3 1;
#X connect 6 0 9 0;
#X connect 7 0 4 0;
#X connect 7 1 6 0;
#X connect 8 0 10 0;
#X connect 9 0 11 0;
#X connect 10 0 12 0;
#X connect 11 0 8 1;
#X connect 14 0 2 0;
#X connect 15 0 7 0;
#X connect 21 0 25 0;
#X connect 24 0 14 0;
#X connect 24 1 11 1;
#X connect 25 0 14 0;
#X connect 25 1 5 0;
#X connect 25 1 9 1;
#X coords 0 523 1 522 366 40 0;
