#N canvas 534 23 846 778 10;
#X declare -path ../;
#X declare -path ../twopole;
#X obj 146 80 pack f 20;
#X obj 146 105 line~;
#X obj 79 80 pack f 20;
#X obj 79 105 line~;
#X obj 12 80 noise~;
#N canvas 0 23 450 300 init 0;
#X obj 33 97 s \$0-b0i;
#X msg 33 69 1;
#X obj 32 37 loadbang;
#X msg 103 70 0.95;
#X obj 105 96 s \$0-b1i;
#X msg 163 70 0.95;
#X obj 165 96 s \$0-b2i;
#X connect 1 0 0 0;
#X connect 2 0 1 0;
#X connect 2 0 3 0;
#X connect 2 0 5 0;
#X connect 3 0 4 0;
#X connect 5 0 6 0;
#X restore 290 12 pd init;
#X obj 79 61 nbx 5 14 0 1e+37 0 0 \$0-b0 \$0-b0i b0 0 -8 0 10 -262144
-1 -1 1 256;
#X obj 146 61 nbx 5 14 -1e+08 1e+08 0 0 \$0-a1 \$0-a1i a1 0 -8 0 10
-262144 -1 -1 -0.951694 256;
#X obj 12 499 fltr.response.amplitude \$0 twopole 0 15;
#X msg 278 144 \; pd dsp 0;
#X msg 278 111 \; pd dsp 1;
#X obj 17 158 fltr.output~;
#X obj 12 219 fltr.spectrogram~;
#X obj 356 12 declare -path ../;
#X obj 12 134 fltr.twopole~, f 34;
#X obj 356 32 declare -path ../twopole;
#X obj 378 219 fltr.difference twopole;
#X obj 378 499 fltr.response.phase \$0 twopole;
#X obj 213 80 pack f 20;
#X obj 213 105 line~;
#X obj 213 61 nbx 5 14 -999999 999999 0 0 \$0-a2 \$0-a2i a2 0 -8 0
10 -262144 -1 -1 0.8836 256;
#X obj 386 81 nbx 5 14 0 1 0 0 empty empty R 0 -8 0 10 -262144 -1 -1
0.94 256;
#X obj 460 81 nbx 5 14 0 3.14159 0 0 empty empty Θ 0 -8 0 10 -262144
-1 -1 1.04 256;
#X obj 386 100 t f f;
#X obj 386 122 *, f 5;
#X obj 460 100 cos;
#X obj 460 162 *;
#X obj 460 122 t b f;
#X obj 487 144 * -2;
#X text 12 13 The Two-Pole filter;
#X obj 386 144 s \$0-a2i;
#X obj 460 186 s \$0-a1i;
#X connect 0 0 1 0;
#X connect 1 0 14 2;
#X connect 2 0 3 0;
#X connect 3 0 14 1;
#X connect 4 0 14 0;
#X connect 6 0 2 0;
#X connect 7 0 0 0;
#X connect 14 0 11 0;
#X connect 14 0 12 0;
#X connect 18 0 19 0;
#X connect 19 0 14 3;
#X connect 20 0 18 0;
#X connect 21 0 23 0;
#X connect 21 0 27 0;
#X connect 22 0 25 0;
#X connect 23 0 24 0;
#X connect 23 1 24 1;
#X connect 24 0 30 0;
#X connect 25 0 26 0;
#X connect 26 0 31 0;
#X connect 27 0 26 0;
#X connect 27 1 28 0;
#X connect 28 0 26 1;
