#N canvas 824 143 747 523 10;
#X obj 29 100 inlet;
#X obj 180 100 inlet;
#X obj 29 194 t f f, f 17;
#X obj 29 452 outlet;
#X obj 128 452 outlet;
#X text 29 77 b0;
#X text 79 77 b1;
#X text 129 77 b2;
#X text 179 77 a1;
#X text 229 77 a2;
#X obj 79 100 inlet;
#X obj 129 100 inlet;
#X obj 230 100 inlet;
#X obj 29 131 t b f, f 8;
#X obj 110 131 t b f, f 6;
#X obj 29 284 * 2;
#X obj 29 264 * 1, f 4;
#X obj 29 324 + 1;
#X obj 62 278 *, f 5;
#X obj 62 253 t f f;
#X obj 29 304 + 0, f 6;
#X obj 29 406 /, f 5;
#X obj 29 365 t b f;
#X obj 29 386 f;
#X obj 29 429 clip 0 10;
#X text 19 29 G(ω) = |b0| / √(1 + a1^2 + 2 * a1 * cos(ωτ)), f
61;
#X obj 29 244 cos;
#X obj 29 344 sqrt;
#X obj 29 170 fltr.loop.for 0 \$1 1;
#X obj 29 219 fltr.to.pi \$1;
#X connect 0 0 13 0;
#X connect 1 0 14 0;
#X connect 2 0 29 0;
#X connect 2 1 4 0;
#X connect 13 0 28 0;
#X connect 13 1 23 1;
#X connect 14 0 28 0;
#X connect 14 1 16 1;
#X connect 14 1 19 0;
#X connect 15 0 20 0;
#X connect 16 0 15 0;
#X connect 17 0 27 0;
#X connect 18 0 20 1;
#X connect 19 0 18 0;
#X connect 19 1 18 1;
#X connect 20 0 17 0;
#X connect 21 0 24 0;
#X connect 22 0 23 0;
#X connect 22 1 21 1;
#X connect 23 0 21 0;
#X connect 24 0 3 0;
#X connect 26 0 16 0;
#X connect 27 0 22 0;
#X connect 28 0 2 0;
#X connect 29 0 26 0;
#X coords 0 523 1 522 366 40 0;
