#N canvas 70 61 1206 771 12;
#X obj 103 103 c.blackboard @size 200 200 @fontname "DejaVu" @fontweight
"normal" @fontslant "roman" @fontsize 12 @receive "" @send "" @chalkmode
0 @bgcolor 0.75 0.75 0.75 1 @bdcolor 0.5 0.5 0.5 1;
#X obj 386 480 t f f;
#X obj 410 511 - 4;
#X obj 441 511 - 4;
#X obj 472 511 + 4;
#X obj 503 511 + 4;
#X obj 386 352 clip 0 1;
#N canvas 0 22 450 300 toPolar 0;
#X obj 117 55 inlet;
#X obj 117 80 unpack, f 12;
#X obj 117 105 - 102;
#X obj 210 105 - 102;
#N canvas 0 22 450 300 radius 0;
#X obj 126 54 inlet;
#X obj 187 54 inlet;
#X obj 126 79 t f f;
#X obj 187 79 t f f;
#X obj 126 104 *, f 5;
#X obj 187 104 *, f 5;
#X obj 126 129 +;
#X obj 126 154 sqrt;
#X obj 126 179 outlet;
#X connect 0 0 2 0;
#X connect 1 0 3 0;
#X connect 2 0 4 0;
#X connect 2 1 4 1;
#X connect 3 0 5 0;
#X connect 3 1 5 1;
#X connect 4 0 6 0;
#X connect 5 0 6 1;
#X connect 6 0 7 0;
#X connect 7 0 8 0;
#X restore 117 161 pd radius;
#N canvas 248 68 989 515 angle 0;
#X obj 137 27 inlet;
#X obj 198 27 inlet;
#X obj 137 92 t b f;
#X obj 137 117 f 0, f 8;
#X obj 137 142 /, f 5;
#X obj 137 167 atan;
#X obj 137 272 outlet;
#N canvas 0 22 450 300 flager 0;
#X obj 252 113 > 0;
#X obj 252 80 t f f f, f 11;
#X obj 252 138 << 2;
#X obj 294 138 << 1;
#X obj 337 138 << 0;
#X obj 92 113 > 0;
#X obj 92 80 t f f f, f 11;
#X obj 252 163 |;
#X obj 252 188 |;
#X obj 92 163 |;
#X obj 92 188 |;
#X obj 177 138 << 3;
#X obj 134 138 << 4;
#X obj 92 138 << 5;
#X obj 92 213 |;
#X obj 337 113 < 0;
#X obj 294 113 == 0;
#X obj 177 113 < 0;
#X obj 134 113 == 0;
#X obj 92 49 inlet;
#X obj 252 49 inlet;
#X obj 92 238 outlet;
#X connect 0 0 2 0;
#X connect 1 0 0 0;
#X connect 1 1 16 0;
#X connect 1 2 15 0;
#X connect 2 0 7 0;
#X connect 3 0 7 1;
#X connect 4 0 8 1;
#X connect 5 0 13 0;
#X connect 6 0 5 0;
#X connect 6 1 18 0;
#X connect 6 2 17 0;
#X connect 7 0 8 0;
#X connect 8 0 14 1;
#X connect 9 0 10 0;
#X connect 10 0 14 0;
#X connect 11 0 10 1;
#X connect 12 0 9 1;
#X connect 13 0 9 0;
#X connect 14 0 21 0;
#X connect 15 0 4 0;
#X connect 16 0 3 0;
#X connect 17 0 11 0;
#X connect 18 0 12 0;
#X connect 19 0 6 0;
#X connect 20 0 1 0;
#X restore 212 108 pd flager;
#X obj 137 52 t f f;
#X obj 137 202 * 0;
#X obj 137 227 + 0;
#N canvas 303 411 778 387 quotioner 0;
#N canvas 0 22 467 372 x==0 0;
#X obj 185 229 &&;
#X obj 185 254 outlet;
#X obj 185 112 inlet;
#X obj 185 142 t f f, f 6;
#X obj 185 174 & 16;
#X obj 230 174 & 4;
#X connect 0 0 1 0;
#X connect 2 0 3 0;
#X connect 3 0 4 0;
#X connect 3 1 5 0;
#X connect 4 0 0 0;
#X connect 5 0 0 1;
#X restore 375 149 pd x==0 && y>0;
#N canvas 0 22 467 372 x==0 0;
#X obj 185 229 &&;
#X obj 185 254 outlet;
#X obj 185 112 inlet;
#X obj 185 142 t f f, f 6;
#X obj 185 174 & 16;
#X obj 230 174 & 1;
#X connect 0 0 1 0;
#X connect 2 0 3 0;
#X connect 3 0 4 0;
#X connect 3 1 5 0;
#X connect 4 0 0 0;
#X connect 5 0 0 1;
#X restore 496 149 pd x==0 && y<0;
#N canvas 0 22 467 372 x==0 0;
#X obj 185 229 &&;
#X obj 185 254 outlet;
#X obj 185 112 inlet;
#X obj 185 142 t f f, f 6;
#X obj 230 174 & 2;
#X obj 185 174 & 16;
#X connect 0 0 1 0;
#X connect 2 0 3 0;
#X connect 3 0 5 0;
#X connect 3 1 4 0;
#X connect 4 0 0 1;
#X connect 5 0 0 0;
#X restore 617 149 pd x==0 && y==0;
#X obj 15 174 sel 1;
#X obj 15 199 f 1;
#X obj 46 199 f 0;
#X obj 105 174 sel 1;
#X obj 105 199 f 1;
#X obj 255 174 sel 1;
#X obj 255 199 f 1;
#X obj 341 18 inlet;
#X obj 211 309 outlet;
#X obj 281 309 outlet;
#X obj 375 174 sel 1;
#X obj 375 199 f 0;
#X obj 406 199 f 1.5708;
#X obj 495 174 sel 1;
#X obj 495 199 f 0;
#X obj 617 174 sel 1;
#X obj 617 199 f 0;
#X obj 648 199 f 0;
#N canvas 299 418 467 372 x>0 0;
#X obj 185 174 & 32;
#X obj 185 254 outlet;
#X obj 185 112 inlet;
#X obj 185 199 == 32;
#X connect 0 0 3 0;
#X connect 2 0 0 0;
#X connect 3 0 1 0;
#X restore 15 149 pd x>0;
#N canvas 0 22 467 372 x<0 0;
#X obj 185 229 &&;
#X obj 185 254 outlet;
#X obj 185 112 inlet;
#X obj 185 174 & 8;
#X obj 230 174 & 2;
#X obj 270 174 & 4;
#X obj 230 199 ||;
#X obj 185 142 t f f f;
#X connect 0 0 1 0;
#X connect 2 0 7 0;
#X connect 3 0 0 0;
#X connect 4 0 6 0;
#X connect 5 0 6 1;
#X connect 6 0 0 1;
#X connect 7 0 3 0;
#X connect 7 1 4 0;
#X connect 7 2 5 0;
#X restore 105 149 pd x<0 && y>=0;
#X obj 136 199 f 3.14159;
#N canvas 0 22 467 372 x<0 0;
#X obj 185 229 &&;
#X obj 185 254 outlet;
#X obj 185 112 inlet;
#X obj 185 174 & 8;
#X obj 230 174 & 1;
#X obj 185 142 t f f;
#X connect 0 0 1 0;
#X connect 2 0 5 0;
#X connect 3 0 0 0;
#X connect 4 0 0 1;
#X connect 5 0 3 0;
#X connect 5 1 4 0;
#X restore 255 149 pd x<0 && y<0;
#X obj 286 199 f -3.14159;
#X obj 526 199 f -1.5708;
#X connect 0 0 13 0;
#X connect 1 0 16 0;
#X connect 2 0 18 0;
#X connect 3 0 4 0;
#X connect 3 0 5 0;
#X connect 4 0 11 0;
#X connect 5 0 12 0;
#X connect 6 0 7 0;
#X connect 6 0 23 0;
#X connect 7 0 11 0;
#X connect 8 0 9 0;
#X connect 8 0 25 0;
#X connect 9 0 11 0;
#X connect 10 0 21 0;
#X connect 10 0 22 0;
#X connect 10 0 0 0;
#X connect 10 0 1 0;
#X connect 10 0 2 0;
#X connect 10 0 24 0;
#X connect 13 0 14 0;
#X connect 13 0 15 0;
#X connect 14 0 11 0;
#X connect 15 0 12 0;
#X connect 16 0 17 0;
#X connect 16 0 26 0;
#X connect 17 0 11 0;
#X connect 18 0 19 0;
#X connect 18 0 20 0;
#X connect 19 0 11 0;
#X connect 20 0 12 0;
#X connect 21 0 3 0;
#X connect 22 0 6 0;
#X connect 23 0 12 0;
#X connect 24 0 8 0;
#X connect 25 0 12 0;
#X connect 26 0 12 0;
#X restore 212 144 pd quotioner;
#X obj 283 69 nbx 5 14 -1e+37 1e+37 0 0 empty empty empty 0 -8 0 10
-262144 -1 -1 0 256;
#X obj 383 64 nbx 5 14 -1e+37 1e+37 0 0 empty empty empty 0 -8 0 10
-262144 -1 -1 0 256;
#X connect 0 0 8 0;
#X connect 1 0 3 1;
#X connect 1 0 7 1;
#X connect 2 0 3 0;
#X connect 2 1 4 1;
#X connect 3 0 4 0;
#X connect 4 0 5 0;
#X connect 5 0 9 0;
#X connect 7 0 11 0;
#X connect 8 0 2 0;
#X connect 8 1 7 0;
#X connect 9 0 10 0;
#X connect 10 0 6 0;
#X connect 11 0 9 1;
#X connect 11 1 10 1;
#X connect 12 0 7 0;
#X connect 13 0 7 1;
#X restore 210 161 pd angle;
#X obj 117 133 / 90;
#X obj 210 133 / -90;
#X obj 117 186 outlet;
#X obj 210 186 outlet, f 14;
#X connect 0 0 1 0;
#X connect 1 0 2 0;
#X connect 1 1 3 0;
#X connect 2 0 6 0;
#X connect 3 0 7 0;
#X connect 4 0 8 0;
#X connect 5 0 9 0;
#X connect 6 0 4 0;
#X connect 6 0 5 0;
#X connect 7 0 4 1;
#X connect 7 0 5 1;
#X restore 386 285 pd toPolar;
#N canvas 0 23 450 300 toCartesian 0;
#N canvas 0 22 450 300 absi 0;
#X obj 161 48 inlet;
#X obj 221 48 inlet;
#X obj 221 73 cos;
#X obj 161 148 *, f 5;
#X obj 161 123 t b f;
#X obj 161 173 outlet;
#X connect 0 0 3 0;
#X connect 1 0 2 0;
#X connect 2 0 4 0;
#X connect 3 0 5 0;
#X connect 4 0 3 0;
#X connect 4 1 3 1;
#X restore 93 60 pd absi;
#N canvas 0 22 450 300 ordi 0;
#X obj 161 48 inlet;
#X obj 221 48 inlet;
#X obj 161 148 *, f 5;
#X obj 161 123 t b f;
#X obj 161 173 outlet;
#X obj 221 73 sin;
#X obj 221 98 * -1;
#X connect 0 0 2 0;
#X connect 1 0 5 0;
#X connect 2 0 4 0;
#X connect 3 0 2 0;
#X connect 3 1 2 1;
#X connect 5 0 6 0;
#X connect 6 0 3 0;
#X restore 183 60 pd ordi;
#X obj 93 85 * 90;
#X obj 183 85 * 90;
#X obj 183 110 + 102;
#X obj 93 110 + 102;
#X obj 93 23 inlet;
#X obj 153 23 inlet;
#X obj 93 135 outlet;
#X obj 183 135 outlet;
#X connect 0 0 2 0;
#X connect 1 0 3 0;
#X connect 2 0 5 0;
#X connect 3 0 4 0;
#X connect 4 0 9 0;
#X connect 5 0 8 0;
#X connect 6 0 0 0;
#X connect 6 0 1 0;
#X connect 7 0 0 1;
#X connect 7 0 1 1;
#X restore 386 427 pd toCartesian;
#X obj 550 404 / 3.14159;
#X obj 550 429 * 180;
#X obj 386 542 pack f f f f f f f f f f f;
#X obj 495 366 t f f;
#X obj 386 381 t f f;
#X obj 525 458 * -90;
#X obj 577 458 * 90;
#X obj 525 483 + 102;
#X obj 575 483 + 102;
#X msg 335 593 clear \, width 1 \, fill 0 \, color rgb 0.3 0.3 0.3
\, line 102 0 102 204 \, line 0 102 204 102 \, oval 12 12 192 192 \,
color rgb 0 0 0 \, line 102 102 \$1 \$2 \, arc \$7 \$7 \$8 \$8 0 \$9
\, text 0 188 r : \$10 \, text 120 188 θ : \$11 \, fill 1 \, oval
\$3 \$4 \$5 \$6;
#X obj 279 431 outlet;
#X obj 677 407 outlet;
#X obj 380 197 loadbang;
#X msg 380 222 202 102;
#X obj 457 155 keyname;
#N canvas 0 22 450 300 Shift_L_state 0;
#X obj 71 98 symbol, f 7;
#X obj 71 123 sel Shift_L;
#X obj 71 72 sel 1 0;
#X obj 171 98 symbol, f 7;
#X obj 171 123 sel Shift_L;
#X obj 71 148 f 1;
#X obj 171 148 f 0;
#X obj 71 39 inlet;
#X obj 125 39 inlet;
#X obj 101 213 outlet;
#X connect 0 0 1 0;
#X connect 1 0 5 0;
#X connect 2 0 0 0;
#X connect 2 1 3 0;
#X connect 3 0 4 0;
#X connect 4 0 6 0;
#X connect 5 0 9 0;
#X connect 6 0 9 0;
#X connect 7 0 2 0;
#X connect 8 0 0 1;
#X connect 8 0 3 1;
#X restore 457 214 pd Shift_L_state;
#X obj 386 310 spigot 1;
#N canvas 0 22 450 300 Alt_L_state 0;
#X obj 71 98 symbol, f 7;
#X obj 71 72 sel 1 0;
#X obj 171 98 symbol, f 7;
#X obj 71 148 f 1;
#X obj 171 148 f 0;
#X obj 71 39 inlet;
#X obj 125 39 inlet;
#X obj 101 213 outlet;
#X obj 171 123 sel Alt_L;
#X obj 71 123 sel Alt_L;
#X connect 0 0 9 0;
#X connect 1 0 0 0;
#X connect 1 1 2 0;
#X connect 2 0 8 0;
#X connect 3 0 7 0;
#X connect 4 0 7 0;
#X connect 5 0 1 0;
#X connect 6 0 0 1;
#X connect 6 0 2 1;
#X connect 8 0 4 0;
#X connect 9 0 3 0;
#X restore 607 214 pd Alt_L_state;
#X obj 506 330 spigot 1;
#X obj 607 239 t b f;
#X obj 607 264 f 1;
#X obj 607 289 -;
#X obj 497 239 t b f;
#X obj 497 264 f 1;
#X obj 497 289 -;
#X obj 298 314 change;
#X obj 298 339 bang;
#X obj 298 364 f 1;
#X connect 0 0 7 0;
#X connect 0 2 34 0;
#X connect 1 0 11 0;
#X connect 1 1 4 0;
#X connect 1 1 2 0;
#X connect 2 0 11 2;
#X connect 3 0 11 3;
#X connect 4 0 11 4;
#X connect 5 0 11 5;
#X connect 6 0 13 0;
#X connect 6 0 19 0;
#X connect 7 0 25 0;
#X connect 7 1 27 0;
#X connect 8 0 1 0;
#X connect 8 1 3 0;
#X connect 8 1 5 0;
#X connect 8 1 11 1;
#X connect 9 0 10 0;
#X connect 10 0 11 8;
#X connect 11 0 18 0;
#X connect 12 0 8 1;
#X connect 12 0 9 0;
#X connect 12 1 11 10;
#X connect 13 0 8 0;
#X connect 13 1 11 9;
#X connect 13 1 14 0;
#X connect 13 1 15 0;
#X connect 14 0 16 0;
#X connect 15 0 17 0;
#X connect 16 0 11 6;
#X connect 17 0 11 7;
#X connect 18 0 0 0;
#X connect 21 0 22 0;
#X connect 22 0 7 0;
#X connect 23 0 24 0;
#X connect 23 0 26 0;
#X connect 23 1 24 1;
#X connect 23 1 26 1;
#X connect 24 0 31 0;
#X connect 25 0 6 0;
#X connect 26 0 28 0;
#X connect 27 0 12 0;
#X connect 27 0 20 0;
#X connect 28 0 29 0;
#X connect 28 1 30 1;
#X connect 29 0 30 0;
#X connect 30 0 27 1;
#X connect 31 0 32 0;
#X connect 31 1 33 1;
#X connect 32 0 33 0;
#X connect 33 0 25 1;
#X connect 34 0 35 0;
#X connect 35 0 36 0;
#X connect 36 0 25 1;
#X connect 36 0 27 1;
#X coords 0 -1 1 1 205 205 2 100 100;
